<?xml version="1.0" encoding="UTF-8" standalone="no"?>
<svg
   xmlns:dc="http://purl.org/dc/elements/1.1/"
   xmlns:cc="http://creativecommons.org/ns#"
   xmlns:rdf="http://www.w3.org/1999/02/22-rdf-syntax-ns#"
   xmlns:svg="http://www.w3.org/2000/svg"
   xmlns="http://www.w3.org/2000/svg"
   xmlns:sodipodi="http://sodipodi.sourceforge.net/DTD/sodipodi-0.dtd"
   xmlns:inkscape="http://www.inkscape.org/namespaces/inkscape"
   version="1.1"
   id="svg2"
   xml:space="preserve"
   width="666.66669"
   height="666.66669"
   viewBox="0 0 666.66669 666.66669"
   sodipodi:docname="120739-OPZMP7-280.eps"><metadata
     id="metadata8"><rdf:RDF><cc:Work
         rdf:about=""><dc:format>image/svg+xml</dc:format><dc:type
           rdf:resource="http://purl.org/dc/dcmitype/StillImage" /></cc:Work></rdf:RDF></metadata><defs
     id="defs6" /><sodipodi:namedview
     pagecolor="#ffffff"
     bordercolor="#666666"
     borderopacity="1"
     objecttolerance="10"
     gridtolerance="10"
     guidetolerance="10"
     inkscape:pageopacity="0"
     inkscape:pageshadow="2"
     inkscape:window-width="640"
     inkscape:window-height="480"
     id="namedview4" /><g
     id="g10"
     inkscape:groupmode="layer"
     inkscape:label="ink_ext_XXXXXX"
     transform="matrix(1.3333333,0,0,-1.3333333,0,666.66667)"><g
       id="g12"
       transform="scale(0.1)"><path
         d="M 0,5000 H 5000 V 0 H 0 v 5000"
         style="fill:#99d2c8;fill-opacity:1;fill-rule:evenodd;stroke:none"
         id="path14" /><path
         d="m 2986.61,3888.61 c 0,0 21.64,47.91 122.08,102 100.43,54.08 267.32,3.08 360.05,-128.27 14.29,-20.23 26.06,-40.12 35.83,-59.62 -103.9,-93.27 -62.96,-236.99 -62.96,-236.99 0,0 104.3,23.95 60.27,-45.59 -44.04,-69.54 -84.22,-39.4 -84.22,-39.4 0,0 -10.05,-21.64 1.54,-61.05 9.92,-33.78 22.14,-35.19 32.73,-56.32 -50.66,-46.36 -112.01,-88.5 -167.08,-112.97 -125.16,-55.62 -395.59,-77.26 -519.22,123.63 -123.63,200.89 -103.54,482.13 220.98,514.58"
         style="fill:#fbc587;fill-opacity:1;fill-rule:evenodd;stroke:none"
         id="path16" /><path
         d="m 2649.35,714.941 c 324.01,0 586.67,-75.23 586.67,-168.019 0,-92.793 -262.66,-168.02 -586.67,-168.02 -324.01,0 -586.67,75.227 -586.67,168.02 0,92.789 262.66,168.019 586.67,168.019"
         style="fill:#76b1ab;fill-opacity:1;fill-rule:evenodd;stroke:none"
         id="path18" /><path
         d="m 3504.57,3802.72 c 0,0 27.96,-21.6 47.75,-72.99 l 0.01,0.01 c 0,0 27.93,5.24 36.77,-8.03 8.85,-13.27 4.43,-25.8 4.43,-25.8 0,0 28.01,5.16 44.22,-14 16.21,-19.17 8.11,-43.49 8.11,-43.49 0,0 22.1,-2.95 28,-25.06 5.89,-22.1 -8.1,-32.42 -8.1,-32.42 0,0 19.9,-25.06 11.05,-48.65 -8.85,-23.59 -37.59,-19.16 -37.59,-19.16 0,0 13.99,-21.37 0,-40.54 -14,-19.16 -40.54,-14 -40.54,-14 0,0 14.01,-22.1 4.43,-39.05 -9.58,-16.96 -42.74,-15.49 -42.74,-15.49 0,0 11.04,-24.33 -11.07,-39.8 -22.1,-15.48 -36.84,-3.68 -36.84,-3.68 0,0 12.52,-23.58 -19.17,-28.74 -31.69,-5.16 -41.36,31.54 -41.36,31.54 -10.59,21.13 -22.81,22.54 -32.73,56.32 -11.59,39.41 -1.54,61.05 -1.54,61.05 0,0 40.18,-30.14 84.22,39.4 44.03,69.54 -60.27,45.59 -60.27,45.59 0,0 -40.94,143.72 62.96,236.99"
         style="fill:#100f0d;fill-opacity:1;fill-rule:evenodd;stroke:none"
         id="path20" /><path
         d="m 3384.41,3904.98 c 0,0 38.63,-13.91 55.63,-57.95 16.99,-44.04 3.87,-77.27 3.87,-77.27 h -29.37 c 0,0 -2.33,55.62 -25.5,78.81 -23.18,23.18 -47.13,21.65 -47.13,21.65 0,0 6.96,55.62 42.5,34.76 z m -315.25,44.05 c 0,0 61.82,39.41 97.36,36.31 35.54,-3.09 35.54,-17.01 35.54,-17.01 l -17.77,-37.09 c 0,0 -17.78,27.83 -57.18,20.87 -39.4,-6.95 -57.18,-23.17 -57.18,-23.17 0,0 -16.22,11.58 -0.77,20.09"
         style="fill:#100f0d;fill-opacity:1;fill-rule:evenodd;stroke:none"
         id="path22" /><path
         d="m 3112.28,3825.65 c 0,0 -34.81,10.85 -47.87,22.91 -13.04,12.07 -17.23,25.07 -17.23,25.07 0,0 20.89,40.42 68.34,63.35 47.46,22.93 44.07,-45.18 -3.24,-111.33 z m 179.38,-147.83 c 0,0 -46.37,20.08 -62.59,38.63 -16.22,18.55 -20.08,37.08 -20.08,37.08 0,0 34.74,52.65 103.54,77.27 68.77,24.62 54.09,-68.76 -20.87,-152.98"
         style="fill:#f68655;fill-opacity:1;fill-rule:evenodd;stroke:none"
         id="path24" /><path
         d="m 3158.18,3635.31 c 0,0 15.5,-79.56 94.31,-111.24 78.81,-31.68 90.22,15.24 82.29,35.15 -7.92,19.9 -25.11,19.14 -25.11,19.14 0,0 35.52,14.49 52.13,-29.56 16.61,-44.05 -13.13,-125.55 -157.23,-62.2 -144.11,63.35 -176.16,188.53 -176.16,188.53 0,0 -115.91,-10.04 -189.31,67.99 -73.4,78.05 -42.5,134.44 -12.36,152.99 30.14,18.55 52.54,-11.99 52.54,-11.99 0,0 -31.68,10.82 -45.2,-11.58 -13.21,-21.88 1.61,-76.17 81.48,-95.62 8.94,-16.21 26.92,-31.07 58.01,-41.15 85.76,-27.81 153.76,-40.96 153.76,-40.96 0,0 -10.8,-52.53 21.64,-58.72 3.13,-0.59 6.22,-0.83 9.21,-0.78"
         style="fill:#100f0d;fill-opacity:1;fill-rule:evenodd;stroke:none"
         id="path26" /><path
         d="m 2936.69,3685.71 c 21.25,-25.78 53.7,-60.01 91.64,-82.79 19.08,-11.45 39.18,-21.52 58.27,-30.1 14.37,-16.64 32.02,-33.56 53.56,-49.3 -23.23,-8.43 -56.44,-18.86 -97.14,-27.22 -82.69,-17 -163.8,-2.32 -165.35,60.26 -1.1,44.07 15.45,107.7 25.33,141.48 11.35,-5.16 22.71,-9.18 33.69,-12.33"
         style="fill:#935d29;fill-opacity:1;fill-rule:evenodd;stroke:none"
         id="path28" /><path
         d="m 2893.12,3661.52 c 31.27,-37.53 99.38,-109.08 195.81,-154.23 20.22,5.55 37.47,11.24 51.23,16.23 -21.54,15.74 -39.19,32.66 -53.56,49.3 -19.09,8.58 -39.19,18.65 -58.27,30.1 -37.94,22.78 -70.39,57.01 -91.64,82.79 -10.98,3.15 -22.34,7.17 -33.69,12.33 -2.92,-9.99 -6.43,-22.58 -9.88,-36.52"
         style="fill:#ffffff;fill-opacity:1;fill-rule:evenodd;stroke:none"
         id="path30" /><path
         d="m 3268.21,3243.55 c 0,0 14.98,-23.76 12.65,-40.75 -2.32,-16.99 -16.22,-27.04 -0.77,-53.31 15.45,-26.28 25.5,-43.28 27.04,-77.27 1.55,-33.99 -9.27,-54.08 -9.27,-54.08 0,0 -118.25,97.35 -220.23,132.13 -101.99,34.77 -207.85,47.14 -207.85,47.14 0,0 -0.76,-16.23 -19.31,-26.27 -18.56,-10.05 -44.82,4.63 -44.82,4.63 0,0 13.11,-90.42 -108.97,-146.05 -122.07,-55.62 -177.71,-131.35 -186.98,-159.16 -9.26,-27.81 -12.36,-77.27 -12.36,-77.27 0,0 -41.73,114.36 1.54,239.53 43.29,125.17 77.27,151.44 77.27,151.44 0,0 -20.08,77.26 61.82,81.9 81.89,4.64 92.71,-29.36 118.98,-30.91 26.27,-1.54 21.65,-3.08 17.01,18.55 -4.64,21.64 4.63,33.99 4.63,33.99 0,0 -49.46,43.27 -89.64,72.64 -40.17,29.36 -98.88,30.91 -98.88,30.91 0,0 44.41,73.99 134.23,66.35 h 0.04 c 10.97,-28.78 24.84,-56.94 41.29,-83.66 118.4,-192.4 371.42,-180.69 502.56,-130.48 h 0.02"
         style="fill:#ed1d24;fill-opacity:1;fill-rule:evenodd;stroke:none"
         id="path32" /><path
         d="m 3297.86,3018.14 c 0,0 165.26,-186.19 295.07,-387.08 129.81,-200.88 197.8,-312.14 268.88,-404.86 71.1,-92.73 114.36,-173.08 114.36,-173.08 0,0 -57.18,-88.09 -135.98,-109.72 -78.82,-21.63 -126.72,-10.82 -126.72,-10.82 0,0 -122.11,316.81 -224.09,499.14 -101.98,182.34 -182.34,241.06 -182.34,241.06 -56.28,-272.49 -77.4,-520.25 -9.29,-927.1 0,0 -247.24,-12.36 -500.68,157.62 -253.42,169.98 -472.86,256.51 -704.66,250.33 -231.8,-6.17 -346.14,-105.08 -346.14,-105.08 0,0 -71.09,259.61 92.72,627.39 163.79,367.79 395.59,525.41 395.59,525.41 0,0 -179.24,24.72 -234.88,27.81 -55.63,3.1 -123.65,204 -222.53,296.72 -98.9,92.71 -151.43,120.52 -151.43,120.52 0,0 51,-20.09 111.25,61.82 60.27,81.9 33.99,171.53 33.99,171.53 0,0 101.95,-171.53 188.51,-316.8 86.53,-145.25 132.9,-224.07 132.9,-224.07 0,0 354.04,63.17 497.68,52.46 6.55,-0.5 12.83,-1.1 18.86,-1.79 20.61,-2.85 54.16,-10.23 80.02,-29.12 40.18,-29.37 89.64,-72.64 89.64,-72.64 0,0 -9.27,-12.35 -4.63,-33.99 4.64,-21.63 9.26,-20.09 -17.01,-18.55 -26.27,1.55 -37.09,35.55 -118.98,30.91 -81.9,-4.64 -61.82,-81.9 -61.82,-81.9 0,0 -33.98,-26.27 -77.27,-151.44 -43.27,-125.17 -1.54,-239.53 -1.54,-239.53 0,0 3.1,49.46 12.36,77.27 9.27,27.81 64.91,103.54 186.98,159.16 122.08,55.63 108.97,146.05 108.97,146.05 0,0 26.26,-14.68 44.82,-4.63 18.55,10.04 19.31,26.27 19.31,26.27 0,0 105.86,-12.37 207.85,-47.14 101.98,-34.78 220.23,-132.13 220.23,-132.13 z m -205.5,-1568.52 c 0,0 -18.53,-156.83 -128.25,-397.91 -109.72,-241.069 -118.99,-253.44 -108.17,-291.3 10.81,-37.859 27.81,-62.57 14.68,-71.84 -13.13,-9.281 -6.18,-41.73 -6.18,-41.73 0,0 -22.42,-10.051 -66.45,-9.27 -44.04,0.77 -80.36,10.809 -80.36,10.809 0,0 14.68,6.961 -3.1,24.73 -17.76,17.77 -27.04,16.231 -16.22,32.45 10.82,16.222 29.36,18.55 11.59,36.312 -17.76,17.77 -78.87,373.199 -111.33,532.369 -21.24,104.17 -36.54,213.67 -44.55,276.86 200.93,-81.04 410.15,-99.2 538.34,-101.48 z m -548.02,105.48 c -4.17,-69.98 -10.33,-199.17 -6.03,-291.68 6.18,-132.89 29.34,-428.022 28.57,-447.338 -0.77,-19.32 20.85,-24.742 13.89,-45.602 -6.94,-20.851 -6.17,-24.718 -1.53,-40.171 4.63,-15.457 7.73,-32.469 2.33,-41.727 -5.42,-9.273 3.07,-27.043 3.07,-27.043 0,0 -12.36,-13.148 -73.39,-20.09 -61.05,-6.949 -85.77,35.543 -85.77,35.543 0,0 13.11,13.887 -16.26,63.348 -29.37,49.461 -392.79,633.33 -465.29,967.23 108.03,16.11 285.54,13.45 495.05,-102.02 34.47,-19.01 69.77,-35.72 105.36,-50.45"
         style="fill:#ffffff;fill-opacity:1;fill-rule:evenodd;stroke:none"
         id="path34" /><path
         d="m 1770.98,3879.75 c 0,0 -14.3,-0.74 -33.91,-5.43 l 37.19,-75.7 c 6.98,46.18 -3.28,81.13 -3.28,81.13 z m -121.41,-55.79 c -6.17,-7.81 -11.45,-16.72 -15.41,-26.86 -30.12,-77.27 -8.42,-150.7 -8.42,-150.7 l 8.17,-1.79 c 16.72,-1.99 57.21,1.27 103.08,63.61 l 1.89,2.61 c -29.7,35.96 -65.23,81.74 -89.31,113.13"
         style="fill:#858688;fill-opacity:1;fill-rule:evenodd;stroke:none"
         id="path36" /><path
         d="m 3225.64,1748.64 v -0.01 l -9.37,-296.09 c 0,0 -429.59,-38.63 -777.29,153.01 -347.68,191.61 -607.31,72.63 -607.31,72.63 0,0 -61.45,286.89 -50.04,394.55 50.01,29.7 153.28,76.71 310.78,80.9 231.8,6.18 451.24,-80.35 704.66,-250.33 169.81,-113.89 336.83,-145.91 428.57,-154.66"
         style="fill:#ed1d24;fill-opacity:1;fill-rule:evenodd;stroke:none"
         id="path38" /><path
         d="m 1831.67,1678.18 c 0,0 58.99,-84.12 157.82,-122.61 -19.7,54.11 -35.45,105.5 -45.56,151.99 v 0.01 c -71.24,-10.62 -112.26,-29.39 -112.26,-29.39"
         style="fill:#c61e25;fill-opacity:1;fill-rule:evenodd;stroke:none"
         id="path40" /><path
         d="m 2854.28,643.5 c 0,0 16.13,-16.66 24.63,-73.84 8.5,-57.172 0.78,-180.031 -81.12,-95.808 -81.91,84.207 -83.21,147.089 -73.28,172.828 v 0.011 c 12.54,-2.91 40.9,-8.55 73.48,-9.121 26.87,-0.461 45.69,3.078 56.29,5.93 z m -277.66,13.07 c 0,0 30.31,-71.449 13.31,-92.308 -16.99,-20.864 -169.2,-46.371 -261.92,-48.692 -92.72,-2.308 35.53,74.95 69.54,95.039 34,20.09 37.63,54.602 37.63,54.602 12.2,-12.02 36.5,-28.27 76.07,-23.762 36.91,4.199 56.02,10.672 65.36,15.121 h 0.01"
         style="fill:#100f0d;fill-opacity:1;fill-rule:evenodd;stroke:none"
         id="path42" /><path
         d="m 3065.86,3899.33 c 16.54,-2.94 43.11,-13.19 62.92,-47.48 -4.72,-8.63 -10.24,-17.44 -16.5,-26.2 0,0 -34.81,10.85 -47.87,22.91 -13.04,12.07 -17.23,25.07 -17.23,25.07 0,0 5.93,11.5 18.68,25.7 z m 172.66,-113.11 c 22.37,-6.49 57.47,-24.55 79.72,-74.72 -7.77,-11.2 -16.65,-22.52 -26.58,-33.68 0,0 -46.37,20.08 -62.59,38.63 -16.22,18.55 -20.08,37.08 -20.08,37.08 0,0 9.89,14.99 29.53,32.69"
         style="fill:#ffffff;fill-opacity:1;fill-rule:evenodd;stroke:none"
         id="path44" /><path
         d="m 3127.33,3694.81 c 0,0 -10.8,-52.53 21.64,-58.72 32.46,-6.17 60.28,24.74 47.13,55.64 -13.13,30.91 -57.94,42.5 -57.94,42.5 0,0 12.36,44.04 -13.14,51 -25.5,6.94 -69.54,16.22 -89.63,43.26 -20.09,27.04 -76.49,56.39 -105.08,27.81 -28.6,-28.58 -42.5,-92.72 43.26,-120.53 85.76,-27.81 153.76,-40.96 153.76,-40.96"
         style="fill:#f15030;fill-opacity:1;fill-rule:evenodd;stroke:none"
         id="path46" /><path
         d="m 3271.2,3770.63 c -15.23,-11.01 -25.14,-28.93 -25.14,-49.16 0,-7.67 1.43,-15.01 4.03,-21.77 19.13,-12.17 41.57,-21.88 41.57,-21.88 9.93,11.16 18.81,22.48 26.58,33.68 -12.99,29.3 -30.37,47.66 -47.04,59.13 z m 25.17,-48.42 c -4.94,2.96 -12.55,-0.63 -17,-8.02 -4.46,-7.41 -4.07,-15.81 0.88,-18.78 4.92,-2.96 12.54,0.61 16.99,8.02 4.46,7.41 4.06,15.8 -0.87,18.78 z m -184.7,138.1 c -3.58,2.15 -9.1,-0.45 -12.34,-5.83 -3.24,-5.38 -2.94,-11.47 0.64,-13.63 3.57,-2.15 9.1,0.45 12.33,5.83 3.24,5.37 2.96,11.47 -0.63,13.63 z m -21.18,30.34 c -10.08,-9.06 -15.81,-22.67 -14.26,-37.19 0.6,-5.49 2.17,-10.65 4.56,-15.3 14.64,-7.26 31.49,-12.51 31.49,-12.51 6.26,8.76 11.78,17.57 16.5,26.2 -11.58,20.03 -25.45,31.86 -38.29,38.8"
         style="fill:#100f0d;fill-opacity:1;fill-rule:evenodd;stroke:none"
         id="path48" /><path
         d="m 3028.44,3493.62 c -35.68,63.51 -105.33,80.52 -150.1,84.61 2.08,26.9 8.35,57.39 14.78,83.29 31.27,-37.53 99.38,-109.08 195.81,-154.23 -13.94,-3.82 -29.31,-7.59 -45.91,-10.99 -4.88,-1.01 -9.74,-1.9 -14.58,-2.68"
         style="fill:#6a3d19;fill-opacity:1;fill-rule:evenodd;stroke:none"
         id="path50" /><path
         d="m 1774.26,3798.61 -50.44,102.68 c -80.14,-3.79 -165.93,-5.85 -255.16,-5.85 -73.69,0 -145.04,1.41 -212.8,4.04 10.08,-9.67 25.19,-13.52 25.19,-13.52 0,0 -28.59,-22.42 -8.5,-44.82 20.09,-22.41 64.14,22.4 141.4,20.87 77.27,-1.55 115.9,-13.93 152.21,-13.15 36.31,0.78 55.63,11.6 55.63,11.6 0,0 66.89,-88.85 117.09,-149.63 21.33,29.94 31.29,60.77 35.38,87.78"
         style="fill:#fbc587;fill-opacity:1;fill-rule:evenodd;stroke:none"
         id="path52" /><path
         d="m 3823.33,1939.15 34.05,-59.39 c 0,0 -25.48,-28.59 -16.99,-75.72 8.5,-47.13 -29.35,-74.95 -52.54,-64.13 -23.18,10.81 -52.55,-27.82 -6.19,-48.67 46.36,-20.87 102.01,-15.47 131.36,20.08 29.36,35.54 49.44,64.92 82.67,57.96 33.23,-6.97 50.21,-20.1 68.76,-10.84 18.55,9.28 98.91,-7.72 156.09,13.14 57.17,20.87 51.76,44.83 51.76,44.83 0,0 47.9,10.8 57.95,41.71 10.05,30.91 -32.44,41.72 -32.44,41.72 0,0 28.59,22.41 8.5,44.82 -20.09,22.41 -64.13,-22.41 -141.4,-20.86 -77.27,1.54 -115.9,13.92 -152.21,13.14 -36.31,-0.78 -55.64,-11.6 -55.64,-11.6 0,0 -20.84,30.76 -41.57,60.29 -21.15,-17.9 -46.8,-34.41 -75.3,-42.23 -5.8,-1.59 -11.43,-3 -16.86,-4.25"
         style="fill:#fbc587;fill-opacity:1;fill-rule:evenodd;stroke:none"
         id="path54" /><path
         d="m 3757.21,1721.5 c 0.46,-0.21 85.43,-39.67 123.17,5.03 37.86,44.82 75.74,100.46 125.18,81.14 49.44,-19.32 105.82,-36.66 203.96,-39.58 -56,-15.34 -127.69,-0.96 -145.07,-9.65 -18.55,-9.26 -35.53,3.87 -68.76,10.84 -33.23,6.96 -53.31,-22.42 -82.67,-57.96 -29.35,-35.55 -85,-40.95 -131.36,-20.08 -19.19,8.62 -25.4,20.31 -24.45,30.26 z m 515.09,94.91 c 0,0 -68.17,2.07 -111.45,5.16 -43.26,3.09 -65.66,8.51 -65.66,8.51 0,0 133.83,-9.35 224.52,11.16 -17.5,-18.08 -47.41,-24.83 -47.41,-24.83 z m 32.21,81.17 -6.59,2.23 c 0.57,-0.15 3.12,-0.87 6.59,-2.23 z m -6.7,2.26 c 0,0 -51.18,-10.64 -104.49,-17.58 -53.32,-6.96 -86.53,0.77 -86.53,0.77 0,0 93.8,2.79 205.68,37.71 -3.43,-12.09 -14.66,-20.9 -14.66,-20.9"
         style="fill:#f68655;fill-opacity:1;fill-rule:evenodd;stroke:none"
         id="path56" /><path
         d="m 2966.25,3856.8 c -10.7,3.68 -21.01,1.98 -23.01,-3.83 -1.99,-5.79 5.09,-13.48 15.81,-17.17 10.7,-3.67 21.01,-1.96 23,3.83 2,5.81 -5.08,13.49 -15.8,17.17 z m -22.66,-23.48 c -4.98,1.7 -9.78,0.87 -10.72,-1.87 -0.95,-2.74 2.33,-6.34 7.31,-8.06 4.97,-1.72 9.77,-0.88 10.72,1.86 0.94,2.74 -2.34,6.35 -7.31,8.07"
         style="fill:#ffffff;fill-opacity:1;fill-rule:evenodd;stroke:none"
         id="path58" /><path
         d="m 842.414,4078.51 c -109.012,-19.28 -174.207,-43.69 -174.207,-70.25 0,-62.31 358.383,-112.82 800.453,-112.82 442.08,0 800.46,50.51 800.46,112.82 0,26.56 -65.19,50.97 -174.2,70.25 5.07,-17.56 9.41,-35.4 12.96,-53.54 -419.02,-66.61 -845.37,-64.49 -1278.446,0 3.566,18.14 7.91,35.98 12.98,53.54"
         style="fill:#9c811f;fill-opacity:1;fill-rule:evenodd;stroke:none"
         id="path60" /><path
         d="m 1435.47,4543.73 c -302.11,-14.98 -549.939,-233.1 -606.036,-518.76 433.076,-64.49 859.426,-66.61 1278.446,0 -56.08,285.64 -303.9,503.77 -606.01,518.76 v -15.27 h -66.4 v 15.27"
         style="fill:#f9c907;fill-opacity:1;fill-rule:evenodd;stroke:none"
         id="path62" /><path
         d="m 1468.67,4621.1 c -33.93,0 -61.43,-13.49 -61.43,-30.14 0,-10.64 11.26,-20 28.23,-25.36 v -37.14 h 66.4 v 37.14 c 16.97,5.36 28.23,14.72 28.23,25.36 0,16.65 -27.5,30.14 -61.43,30.14"
         style="fill:#100f0d;fill-opacity:1;fill-rule:evenodd;stroke:none"
         id="path64" /><path
         d="m 841.625,4075.77 c -38.02,-10.96 -59.164,-23.07 -59.164,-35.84 0,-48.65 307.229,-88.1 686.199,-88.1 378.98,0 686.21,39.45 686.21,88.1 0,12.77 -21.16,24.88 -59.16,35.84 l 0.02,-0.09 c 4.71,-13 8.79,-26.18 12.15,-39.58 l -2.22,-0.28 2.22,-10.85 c -419.02,-66.61 -845.37,-64.49 -1278.446,0 l 2.238,10.86 -2.238,0.27 c 3.367,13.4 7.441,26.58 12.168,39.58 l 0.023,0.09"
         style="fill:#866f20;fill-opacity:1;fill-rule:evenodd;stroke:none"
         id="path66" /><path
         d="m 2244.77,4008.18 c 0,0 -35.54,-47.04 -295.16,-74.94 -259.62,-27.91 -443.52,-22.41 -443.52,-22.41 0,0 462.17,15.11 738.68,97.35"
         style="fill:#f9c907;fill-opacity:1;fill-rule:evenodd;stroke:none"
         id="path68" /><path
         d="m 1552.81,4539.19 c -67.83,-68.04 -218.43,-248.84 -254.06,-540.98 -0.75,-6.25 -1.56,-12.38 -2.39,-18.42 -99.93,4.33 -200.22,12.2 -300.891,23.51 38.051,153.46 125.451,351.73 323.541,524.16 37.67,8.75 76.58,14.29 116.46,16.27 v -15.27 h 66.4 v 15.27 c 17.17,-0.86 34.14,-2.4 50.94,-4.54 z m -301.87,-31.48 c -80.51,-76.62 -229.13,-246.22 -291.077,-500.28 -24.101,2.9 -48.246,6 -72.402,9.27 46.051,134.14 120.619,291.51 240.719,433.09 38.46,23.31 79.57,42.81 122.76,57.92"
         style="fill:#dbb212;fill-opacity:1;fill-rule:evenodd;stroke:none"
         id="path70" /><path
         d="m 992.23,4252.75 c 14.73,-9.75 30.68,-19.45 48.04,-28.86 -32.24,-63.44 -60.707,-135.68 -80.407,-216.46 -24.101,2.9 -48.246,6 -72.402,9.27 25.348,73.82 59.32,154.68 104.769,236.05 z m 78.47,-44.34 c 66.74,-31.91 150.81,-58.84 255.13,-71.24 -11.69,-43.12 -21.04,-89.44 -27.08,-138.96 -0.75,-6.25 -1.56,-12.38 -2.39,-18.42 -99.93,4.33 -200.22,12.2 -300.891,23.51 15.501,62.52 39.201,132.47 75.231,205.11"
         style="fill:#c09e1a;fill-opacity:1;fill-rule:evenodd;stroke:none"
         id="path72" /><path
         d="m 1823.58,4440.79 c -66.48,-97.52 -165.95,-265.55 -219.42,-463.07 56.81,1.72 113.47,4.63 170.01,8.73 25.34,108.34 73.25,233.35 159.8,365 -33.31,33.59 -70.32,63.59 -110.39,89.34"
         style="fill:#f8e505;fill-opacity:1;fill-rule:evenodd;stroke:none"
         id="path74" /><path
         d="m 2805.65,3175.77 c 0,0 13.11,-90.42 -108.97,-146.05 -122.07,-55.62 -177.71,-131.35 -186.98,-159.16 -9.26,-27.81 -12.36,-77.27 -12.36,-77.27 -20.1,197.71 97.37,219.53 205.55,281.33 108.18,61.81 66.09,138.32 66.09,138.32 0,0 31.68,-26.27 62.2,-28.21 30.53,-1.94 38.6,12.68 38.6,12.68 0,0 -0.76,-16.23 -19.31,-26.27 -18.56,-10.05 -44.82,4.63 -44.82,4.63 z m -40.02,198.26 c 118.4,-192.4 371.45,-180.69 502.58,-130.48 0,0 14.98,-23.76 12.65,-40.75 -1.33,-9.75 -6.47,-17.22 -7.7,-26.78 -515.75,-41.95 -548.86,281.67 -548.86,281.67 10.98,-28.79 24.88,-56.93 41.33,-83.66 z m -174.01,-184.26 c 0,0 -8.49,37.86 46.37,49.45 54.86,11.58 106.62,-33.24 78.04,-92.73 -28.59,-59.5 -126.71,-69.54 -156.08,-89.62 -29.36,-20.11 -47.13,-48.69 -47.13,-48.69 0,0 29.36,112.81 66.44,143.72 37.09,30.9 100.45,23.95 100.45,23.95 0,0 -51.76,29.37 -88.09,13.92"
         style="fill:#c61e25;fill-opacity:1;fill-rule:evenodd;stroke:none"
         id="path76" /><path
         d="m 3932.92,2001.54 c 0,0 -266.56,422.65 -384.01,592.63 -117.44,169.98 -194.7,318.34 -310.6,411.05 -115.9,92.71 -353.87,140.62 -353.87,140.62 0,0 -6.29,-23.2 -54.87,-74.37 -33.45,-131.28 -162.75,-669.03 -151.98,-1092.88 -7.9,4.64 -15.77,9.2 -23.63,13.65 -7.1,396.37 103.4,884.39 145.2,1053.84 -55.58,-35.89 -138.45,-49.34 -190.21,-90.3 -61.05,-48.3 -86.93,-153.38 -86.93,-153.38 0,0 -3.07,43.55 -0.47,90.93 23.24,35.48 78.28,92.27 175.13,136.39 122.08,55.63 108.97,146.05 108.97,146.05 0,0 26.26,-14.68 44.82,-4.63 18.55,10.04 19.31,26.27 19.31,26.27 0,0 105.86,-12.37 207.85,-47.14 101.98,-34.78 220.23,-132.13 220.23,-132.13 0,0 165.26,-186.19 295.07,-387.08 129.81,-200.88 197.8,-312.14 268.88,-404.86 71.1,-92.73 114.36,-173.08 114.36,-173.08 0,0 -16.2,-24.96 -43.25,-51.58 z M 2798.75,1479.98 c 0.41,-1.19 21.82,-63.71 23.36,-258.09 1.54,-196.25 -50.98,-273.531 -6.18,-207.07 44.81,66.45 47.91,3.88 17,-66.441 -30.91,-70.328 -53.33,-95.027 -45.59,-43.277 7.73,51.769 -5.41,47.898 -15.45,-1.543 -10.05,-49.457 6.94,-119 -0.78,-142.18 -7.72,-23.168 -23.18,-28.59 0,-45.59 23.19,-16.988 50.88,-37.019 19.26,-78 l 7.62,-0.219 c 44.03,-0.781 66.45,9.27 66.45,9.27 0,0 -6.95,32.449 6.18,41.73 13.13,9.27 -3.87,33.981 -14.68,71.84 -10.82,37.86 -1.55,50.231 108.17,291.3 109.72,241.08 128.25,397.91 128.25,397.91 -75.73,1.35 -179.73,8.24 -293.61,30.36 z m -254.41,75.12 c -4.17,-69.98 -10.33,-199.17 -6.03,-291.68 6.18,-132.89 29.34,-428.022 28.57,-447.338 -0.77,-19.32 20.85,-24.742 13.89,-45.602 -6.94,-20.851 -6.17,-24.718 -1.53,-40.171 4.63,-15.457 7.73,-32.469 2.33,-41.727 -5.42,-9.273 3.07,-27.043 3.07,-27.043 0,0 -12.36,-13.148 -73.39,-20.09 20.63,33.012 3.31,50.422 -5.96,65.871 -9.29,15.45 -16.23,24.739 -17.01,60.27 -0.77,35.531 -74.16,143.691 -95,195.449 -20.85,51.781 -9.27,60.281 20.07,4.641 29.36,-55.629 59.51,-59.489 33.24,93.5 -26.27,152.98 -91.17,166.89 -78.82,33.98 12.37,-132.89 -63.35,69.54 -129.8,245.72 -66.4,176.01 -95.57,366.3 -95.62,366.65 86.61,-12.17 187.25,-41.71 296.63,-101.98 34.47,-19.01 69.77,-35.72 105.36,-50.45 z M 2661,2905.61 c -2.03,-4.98 -3.23,-10.4 -3.4,-16.07 1.82,-1.94 4.41,-3.16 7.28,-3.16 5.51,0 10.01,4.5 10.01,10.02 0,5.5 -4.5,10.02 -10.01,10.02 -1.38,0 -2.68,-0.3 -3.88,-0.81 z m 15.49,-55.04 c 7.75,-5.72 17.33,-9.1 27.7,-9.1 25.73,0 46.6,20.87 46.6,46.62 0,22.78 -16.37,41.77 -38,45.8 11.48,-8.49 18.95,-22.12 18.95,-37.49 l -0.03,-1.45 c 1.71,-1.79 2.75,-4.21 2.75,-6.86 0,-4.15 -2.55,-7.73 -6.16,-9.25 -6.92,-17.03 -23.66,-29.06 -43.17,-29.06 -2.96,0 -5.85,0.27 -8.64,0.79 z m -597.17,-502.16 c -5.44,0.95 -10.64,-2.7 -11.59,-8.13 -0.96,-5.43 2.69,-10.65 8.12,-11.6 5.43,-0.96 10.64,2.7 11.6,8.13 0.95,5.42 -2.7,10.64 -8.13,11.6 z m 71.29,244.78 c -5.42,0.96 -10.64,-2.72 -11.6,-8.13 -0.95,-5.43 2.7,-10.64 8.14,-11.6 5.41,-0.96 10.64,2.71 11.59,8.14 0.96,5.41 -2.69,10.63 -8.13,11.59 z m 69.51,188.61 c -5.43,0.96 -10.64,-2.71 -11.59,-8.12 -0.96,-5.44 2.69,-10.65 8.12,-11.61 5.43,-0.95 10.64,2.71 11.6,8.14 0.95,5.42 -2.69,10.65 -8.13,11.59 z m 106.28,195.87 c -5.41,0.94 -10.63,-2.72 -11.59,-8.14 -0.95,-5.42 2.69,-10.65 8.13,-11.61 5.42,-0.94 10.64,2.71 11.6,8.15 0.96,5.41 -2.7,10.64 -8.14,11.6 z m 244.64,-733.8 c -5.52,0 -10.01,-4.52 -10.01,-10.01 0,-5.51 4.49,-10.02 10.01,-10.02 5.51,0 10.01,4.51 10.01,10.02 0,5.49 -4.5,10.01 -10.01,10.01 z m 27.81,253.43 c -5.52,0 -10.01,-4.51 -10.01,-10.01 0,-5.52 4.49,-10.02 10.01,-10.02 5.51,0 10.01,4.5 10.01,10.02 0,5.5 -4.5,10.01 -10.01,10.01 z m 35.77,197.81 c -5.5,0 -10,-4.51 -10,-10.02 0,-5.52 4.5,-10.02 10,-10.02 5.52,0 10.02,4.5 10.02,10.02 0,5.51 -4.5,10.02 -10.02,10.02 z m 70.75,211.31 c -5.5,0 -10,-4.52 -10,-10.02 0,-5.52 4.5,-10.02 10,-10.02 5.52,0 10.02,4.5 10.02,10.02 0,5.5 -4.5,10.02 -10.02,10.02 z m -670.02,-551.13 c -2.15,-4.12 -3.71,-8.65 -4.57,-13.47 -0.18,-1.03 -0.32,-2.04 -0.43,-3.06 1.44,-1.56 3.37,-2.67 5.6,-3.07 5.43,-0.95 10.64,2.72 11.6,8.14 0.96,5.42 -2.71,10.64 -8.12,11.59 -1.41,0.25 -2.78,0.19 -4.08,-0.13 z m 13.63,-59.04 c 5.64,-4.17 12.28,-7.13 19.64,-8.43 25.35,-4.44 49.53,12.49 53.97,37.85 4.44,25.15 -12.21,49.15 -37.26,53.87 12.98,-9.59 20.48,-25.62 18.64,-42.49 2.07,-2.22 3.1,-5.35 2.55,-8.55 -0.72,-4.04 -3.79,-7.09 -7.56,-8.01 -9.15,-17.54 -28.89,-27.94 -49.4,-24.34 z m 57.67,303.83 c -2.16,-4.13 -3.71,-8.66 -4.57,-13.49 -0.17,-1.02 -0.32,-2.04 -0.43,-3.05 1.44,-1.56 3.37,-2.67 5.61,-3.06 5.42,-0.96 10.64,2.7 11.6,8.13 0.95,5.42 -2.72,10.64 -8.13,11.6 -1.41,0.24 -2.78,0.19 -4.08,-0.13 z m 13.63,-59.05 c 5.61,-4.17 12.26,-7.13 19.64,-8.42 25.35,-4.46 49.51,12.48 53.97,37.83 4.44,25.17 -12.22,49.16 -37.25,53.87 12.96,-9.58 20.47,-25.61 18.62,-42.47 2.07,-2.23 3.1,-5.38 2.54,-8.56 -0.7,-4.04 -3.77,-7.11 -7.54,-8.01 -9.15,-17.54 -28.89,-27.96 -49.4,-24.35 z m 55.87,247.66 c -2.15,-4.12 -3.71,-8.66 -4.57,-13.48 -0.17,-1.02 -0.32,-2.03 -0.43,-3.05 1.44,-1.57 3.37,-2.67 5.6,-3.07 5.43,-0.96 10.66,2.71 11.6,8.13 0.96,5.42 -2.71,10.64 -8.12,11.6 -1.4,0.25 -2.79,0.18 -4.08,-0.13 z m 13.62,-59.04 c 5.64,-4.18 12.29,-7.13 19.65,-8.43 25.35,-4.47 49.53,12.48 53.98,37.83 4.43,25.16 -12.22,49.16 -37.24,53.88 12.94,-9.6 20.46,-25.63 18.61,-42.48 2.07,-2.23 3.1,-5.36 2.55,-8.56 -0.72,-4.04 -3.79,-7.11 -7.57,-8.01 -9.15,-17.54 -28.88,-27.96 -49.39,-24.34 z m 92.68,254.89 c -2.16,-4.12 -3.71,-8.65 -4.57,-13.48 -0.18,-1.02 -0.33,-2.03 -0.44,-3.04 1.44,-1.57 3.38,-2.68 5.62,-3.08 5.41,-0.96 10.64,2.71 11.59,8.15 0.96,5.41 -2.71,10.64 -8.13,11.58 -1.4,0.25 -2.78,0.19 -4.07,-0.13 z m 13.63,-59.04 c 5.62,-4.18 12.27,-7.13 19.64,-8.42 25.33,-4.46 49.51,12.48 53.97,37.84 4.42,25.16 -12.23,49.15 -37.27,53.88 12.97,-9.61 20.48,-25.65 18.64,-42.51 2.06,-2.23 3.1,-5.36 2.54,-8.54 -0.71,-4.05 -3.79,-7.1 -7.55,-8.01 -9.15,-17.56 -28.89,-27.95 -49.4,-24.35 z m 230.57,-682.42 c -2.02,-5 -3.22,-10.41 -3.4,-16.08 1.84,-1.95 4.42,-3.16 7.28,-3.16 5.51,0 10.02,4.51 10.02,10.02 0,5.49 -4.51,10.01 -10.02,10.01 -1.37,0 -2.68,-0.28 -3.88,-0.79 z m 15.51,-55.04 c 7.74,-5.73 17.31,-9.12 27.68,-9.12 25.74,0 46.61,20.88 46.61,46.62 0,22.8 -16.38,41.77 -37.99,45.81 11.46,-8.49 18.93,-22.12 18.93,-37.49 l -0.03,-1.45 c 1.71,-1.8 2.75,-4.22 2.75,-6.87 0,-4.15 -2.55,-7.72 -6.14,-9.24 -6.94,-17.03 -23.67,-29.05 -43.19,-29.05 -2.95,0 -5.84,0.26 -8.62,0.79 z m 12.3,308.46 c -2.02,-4.98 -3.22,-10.4 -3.4,-16.06 1.84,-1.95 4.42,-3.17 7.3,-3.17 5.49,0 10,4.5 10,10.02 0,5.5 -4.51,10.01 -10,10.01 -1.38,0 -2.7,-0.28 -3.9,-0.8 z m 15.51,-55.04 c 7.74,-5.72 17.31,-9.1 27.69,-9.1 25.73,0 46.6,20.86 46.6,46.61 0,22.79 -16.37,41.77 -37.99,45.81 11.47,-8.49 18.93,-22.12 18.93,-37.49 l -0.02,-1.45 c 1.7,-1.8 2.75,-4.21 2.75,-6.87 0,-4.15 -2.55,-7.72 -6.15,-9.24 -6.93,-17.03 -23.67,-29.06 -43.19,-29.06 -2.95,0 -5.84,0.27 -8.62,0.79 z m 20.27,252.85 c -2.02,-4.98 -3.23,-10.41 -3.4,-16.07 1.83,-1.95 4.42,-3.17 7.29,-3.17 5.51,0 10.01,4.5 10.01,10.02 0,5.51 -4.5,10.02 -10.01,10.02 -1.38,0 -2.68,-0.29 -3.89,-0.8 z m 15.5,-55.05 c 7.75,-5.71 17.33,-9.1 27.7,-9.1 25.73,0 46.61,20.87 46.61,46.62 0,22.79 -16.38,41.77 -38.01,45.8 11.48,-8.49 18.94,-22.11 18.94,-37.49 l -0.03,-1.45 c 1.72,-1.79 2.75,-4.21 2.75,-6.86 0,-4.15 -2.55,-7.72 -6.15,-9.25 -6.93,-17.02 -23.66,-29.06 -43.17,-29.06 -2.96,0 -5.85,0.27 -8.64,0.79 z m 167.5,618.48 c -36.57,36.59 -105.12,99.76 -172.43,132.67 l 8.12,-0.86 c 20.61,-2.85 54.16,-10.23 80.02,-29.12 40.18,-29.37 89.64,-72.64 89.64,-72.64 0,0 -8.14,-10.86 -5.35,-30.05 z m 533.8,-584.96 c -56.28,-272.49 -77.4,-520.25 -9.29,-927.1 0,0 -162.52,-8.1 -359.1,79.4 131.89,226.32 163.2,808.76 163.2,808.76 0,0 -25.48,37.08 -30.13,103.54 -4.63,66.45 20.1,118.22 20.1,118.22 0,0 -2.32,-51.77 17.77,-99.68 20.08,-47.9 54.85,-67.22 54.85,-67.22 0,0 -29.35,29.36 -42.5,80.36 -13.14,50.99 3.88,142.93 3.88,142.93 0,0 9.27,-74.18 54.08,-131.36 44.83,-57.18 127.14,-107.85 127.14,-107.85 z m -1072.46,528.57 c 0,0 -179.24,24.72 -234.88,27.81 -55.63,3.1 -123.65,204 -222.53,296.72 -60.7,56.89 -103.93,89.35 -128.27,105.92 106.78,14.46 147.8,117.86 147.8,117.86 0,0 2.32,-9.66 0.38,-34.77 -1.94,-25.12 -15.44,-61.82 -15.44,-61.82 0,0 20.1,-15.44 44.82,-54.07 24.73,-38.63 184.69,-319.89 184.69,-319.89 0,0 71.85,-24.72 156.08,-16.99 84.23,7.73 204.76,23.18 204.76,23.18 l -137.41,-83.95"
         style="fill:#efeff0;fill-opacity:1;fill-rule:evenodd;stroke:none"
         id="path78" /><path
         d="m 2685.13,2943.01 c -25.75,0 -46.62,-20.88 -46.62,-46.61 0,-25.74 20.87,-46.62 46.62,-46.62 25.73,0 46.61,20.88 46.61,46.62 0,25.73 -20.88,46.61 -46.61,46.61 z m -619.42,-555.04 c -25.35,4.44 -49.52,-12.49 -53.99,-37.84 -4.46,-25.35 12.49,-49.53 37.84,-53.98 25.35,-4.46 49.52,12.47 53.97,37.83 4.47,25.34 -12.47,49.52 -37.82,53.99 z m 13.61,-39.56 c -5.44,0.95 -10.64,-2.7 -11.59,-8.13 -0.96,-5.43 2.69,-10.65 8.12,-11.6 5.43,-0.96 10.64,2.7 11.6,8.13 0.95,5.42 -2.7,10.64 -8.13,11.6 z m -39.89,7.01 c -5.43,0.96 -10.64,-2.69 -11.6,-8.12 -0.96,-5.43 2.71,-10.65 8.12,-11.61 5.43,-0.95 10.64,2.72 11.6,8.14 0.96,5.42 -2.71,10.64 -8.12,11.59 z m 97.58,277.31 c -25.36,4.47 -49.54,-12.47 -53.99,-37.81 -4.46,-25.36 12.47,-49.53 37.84,-54 25.34,-4.45 49.51,12.49 53.97,37.84 4.47,25.35 -12.48,49.51 -37.82,53.97 z m 13.6,-39.54 c -5.42,0.96 -10.64,-2.72 -11.6,-8.13 -0.95,-5.43 2.7,-10.64 8.14,-11.6 5.41,-0.96 10.64,2.71 11.59,8.14 0.96,5.41 -2.69,10.63 -8.13,11.59 z m -39.88,7.02 c -5.43,0.95 -10.66,-2.72 -11.6,-8.13 -0.96,-5.44 2.69,-10.65 8.13,-11.6 5.42,-0.96 10.64,2.7 11.6,8.13 0.95,5.42 -2.72,10.64 -8.13,11.6 z m 95.79,221.13 c -25.36,4.47 -49.53,-12.46 -54,-37.81 -4.46,-25.36 12.49,-49.53 37.84,-53.99 25.35,-4.46 49.52,12.48 53.97,37.83 4.47,25.35 -12.47,49.53 -37.81,53.97 z m 13.6,-39.54 c -5.43,0.96 -10.64,-2.71 -11.59,-8.12 -0.96,-5.44 2.69,-10.65 8.12,-11.61 5.43,-0.95 10.64,2.71 11.6,8.14 0.95,5.42 -2.69,10.65 -8.13,11.59 z m -39.89,7.02 c -5.43,0.96 -10.64,-2.72 -11.6,-8.12 -0.96,-5.43 2.71,-10.65 8.12,-11.61 5.43,-0.96 10.66,2.71 11.6,8.13 0.96,5.42 -2.71,10.64 -8.12,11.6 z m 132.57,228.39 c -25.35,4.46 -49.53,-12.48 -53.98,-37.83 -4.46,-25.34 12.47,-49.52 37.83,-53.99 25.34,-4.45 49.52,12.49 53.98,37.85 4.45,25.33 -12.48,49.51 -37.83,53.97 z m 13.6,-39.54 c -5.41,0.94 -10.63,-2.72 -11.59,-8.14 -0.95,-5.42 2.69,-10.65 8.13,-11.61 5.42,-0.94 10.64,2.71 11.6,8.15 0.96,5.41 -2.7,10.64 -8.14,11.6 z m -39.88,7 c -5.42,0.96 -10.65,-2.69 -11.6,-8.12 -0.95,-5.42 2.7,-10.65 8.14,-11.61 5.41,-0.96 10.64,2.71 11.59,8.15 0.96,5.41 -2.71,10.64 -8.13,11.58 z m 264.26,-704.2 c -25.74,0 -46.62,-20.88 -46.62,-46.61 0,-25.75 20.88,-46.61 46.62,-46.61 25.74,0 46.61,20.86 46.61,46.61 0,25.73 -20.87,46.61 -46.61,46.61 z m 20.26,-36.6 c -5.52,0 -10.01,-4.52 -10.01,-10.01 0,-5.51 4.49,-10.02 10.01,-10.02 5.51,0 10.01,4.51 10.01,10.02 0,5.49 -4.5,10.01 -10.01,10.01 z m -40.51,0 c -5.5,0 -10.01,-4.52 -10.01,-10.01 0,-5.51 4.51,-10.02 10.01,-10.02 5.51,0 10.02,4.51 10.02,10.02 0,5.49 -4.51,10.01 -10.02,10.01 z m 48.06,290.02 c -25.74,0 -46.62,-20.86 -46.62,-46.6 0,-25.75 20.88,-46.62 46.62,-46.62 25.74,0 46.61,20.87 46.61,46.62 0,25.74 -20.87,46.6 -46.61,46.6 z m 20.26,-36.59 c -5.52,0 -10.01,-4.51 -10.01,-10.01 0,-5.52 4.49,-10.02 10.01,-10.02 5.51,0 10.01,4.5 10.01,10.02 0,5.5 -4.5,10.01 -10.01,10.01 z m -40.49,0 c -5.52,0 -10.03,-4.51 -10.03,-10.01 0,-5.52 4.51,-10.02 10.03,-10.02 5.49,0 10,4.5 10,10.02 0,5.5 -4.51,10.01 -10,10.01 z m 56.02,234.4 c -25.75,0 -46.62,-20.87 -46.62,-46.61 0,-25.74 20.87,-46.62 46.62,-46.62 25.73,0 46.6,20.88 46.6,46.62 0,25.74 -20.87,46.61 -46.6,46.61 z m 20.24,-36.59 c -5.5,0 -10,-4.51 -10,-10.02 0,-5.52 4.5,-10.02 10,-10.02 5.52,0 10.02,4.5 10.02,10.02 0,5.51 -4.5,10.02 -10.02,10.02 z m -40.49,0 c -5.51,0 -10.02,-4.51 -10.02,-10.02 0,-5.52 4.51,-10.02 10.02,-10.02 5.51,0 10.01,4.5 10.01,10.02 0,5.51 -4.5,10.02 -10.01,10.02 z m 111.24,211.31 c -5.5,0 -10,-4.52 -10,-10.02 0,-5.52 4.5,-10.02 10,-10.02 5.52,0 10.02,4.5 10.02,10.02 0,5.5 -4.5,10.02 -10.02,10.02 z m -40.49,0 c -5.51,0 -10.02,-4.52 -10.02,-10.02 0,-5.52 4.51,-10.02 10.02,-10.02 5.51,0 10.01,4.5 10.01,10.02 0,5.5 -4.5,10.02 -10.01,10.02"
         style="fill:#100f0d;fill-opacity:1;fill-rule:evenodd;stroke:none"
         id="path80" /><path
         d="m 3112.75,3992.72 61.61,130.19 c 0,0 -71.11,3.88 -84.25,90.41 -13.15,86.53 35.54,114.34 35.54,114.34 0,0 15.44,118.21 124.39,157.63 108.94,39.41 218.66,-101.23 218.66,-101.23 0,0 145.27,81.17 315.25,-28.55 169.98,-109.72 66.44,-295.15 66.44,-295.15 0,0 122.09,-61.82 106.63,-219.45 -15.46,-157.61 -195.47,-83.43 -195.47,-83.43 0,0 13.12,-51.77 -45.6,-61.81 -58.72,-10.05 -117.44,88.85 -117.44,88.85 l -46.18,-54.78 h -0.01 c -19.79,51.38 -47.75,72.98 -47.75,72.98 -9.77,19.5 -21.54,39.39 -35.83,59.62 -91.47,129.59 -255.13,180.95 -355.97,130.38 h -0.02"
         style="fill:#ffffff;fill-opacity:1;fill-rule:evenodd;stroke:none"
         id="path82" /><path
         d="m 3125.65,4327.66 c 0,0 -8.29,-31.05 7.17,-63.5 15.45,-32.44 44.04,-58.71 44.04,-58.71 0,0 -55.69,0.53 -88.16,52.42 5.58,51.86 36.95,69.79 36.95,69.79 z m 175.68,164.07 c 89.6,-8 167.37,-107.67 167.37,-107.67 -60.44,-36.23 -103.36,-119.84 -103.36,-119.84 0,0 37.09,63.37 21.63,134.45 -15.15,69.73 -83.04,92.22 -85.64,93.06 z m 457.96,-121.52 c 8.15,-4.46 16.37,-9.35 24.66,-14.7 169.98,-109.72 66.44,-295.15 66.44,-295.15 0,0 122.09,-61.82 106.63,-219.45 -15.46,-157.61 -195.47,-83.43 -195.47,-83.43 0,0 13.12,-51.77 -45.6,-61.81 -58.72,-10.05 -117.44,88.85 -117.44,88.85 l -46.18,-54.78 h -0.01 c -19.79,51.38 -47.75,72.98 -47.75,72.98 -9.77,19.5 -21.54,39.39 -35.83,59.62 86.76,2.56 95.58,53.85 95.58,53.85 0,0 -109.33,24.33 -150.28,73.01 -40.96,48.69 -47.13,96.98 -47.13,96.98 0,0 -42.13,-9.27 -80.76,-3.09 -38.63,6.18 -57.96,26.27 -57.96,26.27 0,0 43.29,-2.32 78.06,-0.39 34.78,1.92 75.36,15.45 75.36,15.45 0,0 13.9,-53.3 56.4,-98.9 42.49,-45.59 142.9,-59.5 142.9,-59.5 160.17,16.35 326.82,228.05 178.38,404.19 z m 57.61,-346.58 c -22.91,-43.76 -83.79,-78.81 -129.03,-95.05 0,0 7.72,-79.59 87.3,-101.99 79.6,-22.41 158.41,88.87 41.73,197.04"
         style="fill:#efeff0;fill-opacity:1;fill-rule:evenodd;stroke:none"
         id="path84" /><path
         d="m 3501,3809.66 c 10.91,0.56 22.73,2.7 33.59,7.87 32.46,15.45 61.82,47.14 61.82,47.14 0,0 0.78,-41.73 62.59,-60.28 61.8,-18.55 89.62,6.95 89.62,6.95 0,0 174.15,-118.93 203.36,112.38 5.74,-24.01 8.11,-51.51 5.04,-82.81 -15.46,-157.61 -195.47,-83.43 -195.47,-83.43 0,0 13.12,-51.77 -45.6,-61.81 -58.72,-10.05 -117.44,88.85 -117.44,88.85 l -46.18,-54.78 h -0.01 c -19.79,51.38 -47.75,72.98 -47.75,72.98 l -3.57,6.94"
         style="fill:#dddedc;fill-opacity:1;fill-rule:evenodd;stroke:none"
         id="path86" /><path
         d="m 3307.04,2672.78 c 0,0 -34.36,5.11 -73.77,28.29 -39.4,23.17 -78.8,69.53 -78.8,69.53 0,0 30.13,-66.45 54.48,-89.62 24.33,-23.18 51,-38.24 51,-38.24 0,0 -56.8,-0.39 -97.75,21.63 -40.96,22.02 -59.12,55.25 -59.12,55.25 0,0 7.72,-53.32 37.47,-81.14 29.76,-27.82 76.12,-51.38 76.12,-51.38 0,0 -46.8,-323.71 -48.35,-470.52 -1.53,-146.79 -3.95,-287.66 -62.99,-347.81 113.89,-26.99 192.42,-23.09 192.42,-23.09 -68.11,406.85 -46.99,654.61 9.29,927.1"
         style="fill:#dddedc;fill-opacity:1;fill-rule:evenodd;stroke:none"
         id="path88" /><path
         d="m 1780.79,2017.46 c 66.72,42.81 173.03,82.87 332.08,72.87 319.87,-20.09 384.77,-156.08 619.67,-292.06 234.86,-135.98 296.09,-283.57 66.19,-318.26 228.65,-44.43 417.54,-27.47 417.54,-27.47 l 9.37,296.09 v 0.01 c -91.74,8.75 -258.76,40.77 -428.57,154.66 -253.42,169.98 -472.86,256.51 -704.66,250.33 -157.5,-4.19 -260.77,-51.2 -310.78,-80.9 -1.61,-15.27 -1.77,-34.13 -0.84,-55.27"
         style="fill:#c61e25;fill-opacity:1;fill-rule:evenodd;stroke:none"
         id="path90" /><path
         d="m 3006.67,1453.26 c 0.09,-0.34 29.95,-94.22 -73.4,-348.74 -103.54,-254.969 -117.42,-285.879 -103.53,-328.379 13.91,-42.493 35.54,-67.981 24.73,-82.672 -10.82,-14.68 -15.22,-25.91 -10.71,-52.348 13.74,2.617 20.68,5.719 20.68,5.719 0,0 -6.95,32.449 6.18,41.73 13.13,9.27 -3.87,33.981 -14.68,71.84 -10.82,37.86 -1.55,50.231 108.17,291.3 109.72,241.08 128.25,397.91 128.25,397.91 -25.57,0.46 -54.39,1.55 -85.69,3.64 z m -462.33,101.84 c -4.17,-69.98 -10.33,-199.17 -6.03,-291.68 6.18,-132.89 29.34,-428.022 28.57,-447.338 -0.77,-19.32 20.85,-24.742 13.89,-45.602 -6.94,-20.851 -6.17,-24.718 -1.53,-40.171 4.63,-15.457 7.73,-32.469 2.33,-41.727 -5.42,-9.273 3.07,-27.043 3.07,-27.043 0,0 -5.45,-5.809 -27.01,-11.75 v 0.02 c 6.84,20.472 9.37,37.472 -4.53,61.421 -13.92,23.95 -12.36,27.809 -4.64,54.86 7.72,27.058 -12.36,76.492 -52.53,243.4 -40.16,166.83 -92.75,614.56 -92.78,614.87 11.83,-5.91 23.78,-12.18 35.83,-18.81 34.47,-19.01 69.77,-35.72 105.36,-50.45"
         style="fill:#dddedc;fill-opacity:1;fill-rule:evenodd;stroke:none"
         id="path92" /><path
         d="m 3938.88,2115.67 c -39.18,-62.09 -111.27,-124.25 -243.71,-136.69 -6.07,15.2 -13.49,33.62 -21.98,54.35 137.35,8.4 201.33,75.92 231.05,134.6 13.23,-19.09 24.81,-36.77 34.64,-52.26 z M 1732.55,3566.18 c -19.36,16.79 -36.17,30.43 -50.37,41.36 112.31,34.29 147.93,103.49 157.94,155.95 l 38.53,-64.76 c -21.46,-49.05 -64,-99.75 -146.1,-132.55"
         style="fill:#ed1d24;fill-opacity:1;fill-rule:nonzero;stroke:none"
         id="path94" /><path
         d="m 3098.34,3295.63 c 238.17,20.42 319.32,185.11 319.32,185.11 0,0 -10.05,-21.64 1.54,-61.05 9.92,-33.78 22.14,-35.19 32.73,-56.32 -50.66,-46.36 -112.01,-88.5 -167.08,-112.97 -5.3,-2.35 -10.85,-4.63 -16.64,-6.85 -131.13,-50.21 -384.18,-61.92 -502.58,130.48 -16.45,26.73 -30.35,54.87 -41.33,83.66 -11.4,29.9 -19.66,60.51 -24.34,90.94 45.12,-144.16 160.2,-273.41 398.38,-253"
         style="fill:#f68655;fill-opacity:1;fill-rule:evenodd;stroke:none"
         id="path96" /><path
         d="m 2861.92,3597.75 c 0,0 -27.83,-54.09 16.22,-101.22 44.05,-47.13 135.22,-30.14 135.22,-30.14 0,0 -60.27,-32.43 -127.48,-8.49 -67.24,23.94 -58.74,115.9 -23.96,139.85"
         style="fill:#f68655;fill-opacity:1;fill-rule:evenodd;stroke:none"
         id="path98" /><path
         d="m 3436.76,3527.82 c 0,0 25.88,28.22 42.1,16.62 16.23,-11.6 -20.87,-47.15 -39.02,-44.44 -18.15,2.71 15.84,19.7 15.84,19.7 0,0 -25.12,0.77 -18.92,8.12"
         style="fill:#f68655;fill-opacity:1;fill-rule:evenodd;stroke:none"
         id="path100" /><path
         d="m 1725.61,204.43 c 0,-4.52 0.7,-8.36 2.11,-11.539 1.4,-3.18 3.32,-5.571 5.77,-7.172 2.44,-1.61 5.11,-2.418 7.99,-2.418 2.94,0 5.61,0.758 8.04,2.289 2.42,1.519 4.35,3.871 5.8,7.019 1.44,3.161 2.16,7.11 2.16,11.821 0,4.441 -0.72,8.261 -2.16,11.461 -1.45,3.191 -3.4,5.629 -5.86,7.328 -2.47,1.679 -5.17,2.523 -8.09,2.523 -3.06,0 -5.78,-0.871 -8.19,-2.594 -2.4,-1.726 -4.26,-4.207 -5.58,-7.449 -1.33,-3.238 -1.99,-6.988 -1.99,-11.269 z m 32.79,-24.489 v 1.661 c -2.24,-2.571 -4.45,-4.661 -6.62,-6.262 -2.18,-1.61 -4.54,-2.84 -7.09,-3.66 -2.54,-0.848 -5.32,-1.258 -8.33,-1.258 -4,0 -7.69,0.84 -11.09,2.527 -3.4,1.692 -6.34,4.11 -8.82,7.242 -2.49,3.129 -4.37,6.809 -5.65,11.047 -1.28,4.242 -1.92,8.813 -1.92,13.742 0,10.418 2.54,18.551 7.63,24.372 5.09,5.808 11.79,8.73 20.09,8.73 4.8,0 8.86,-0.832 12.15,-2.473 3.3,-1.648 6.52,-4.187 9.65,-7.597 v 24.597 c 0,3.422 0.68,6.012 2.05,7.762 1.36,1.75 3.3,2.621 5.83,2.621 2.52,0 4.46,-0.801 5.83,-2.41 1.36,-1.613 2.05,-3.973 2.05,-7.113 v -73.528 c 0,-3.171 -0.73,-5.55 -2.2,-7.14 -1.47,-1.582 -3.36,-2.379 -5.68,-2.379 -2.28,0 -4.16,0.816 -5.65,2.469 -1.49,1.648 -2.23,4 -2.23,7.05"
         style="fill:#ffffff;fill-opacity:1;fill-rule:nonzero;stroke:none"
         id="path102" /><path
         d="m 1799.31,209.68 h 30.23 c -0.41,5.699 -1.95,9.968 -4.62,12.8 -2.66,2.829 -6.17,4.239 -10.53,4.239 -4.15,0 -7.56,-1.43 -10.23,-4.297 -2.66,-2.871 -4.28,-7.121 -4.85,-12.742 z m 32.6,-9.469 h -32.6 c 0.04,-3.781 0.8,-7.121 2.29,-10.012 1.48,-2.89 3.46,-5.07 5.92,-6.527 2.46,-1.473 5.18,-2.192 8.15,-2.192 2,0 3.82,0.219 5.47,0.692 1.65,0.469 3.24,1.199 4.8,2.199 1.54,0.988 2.97,2.07 4.27,3.211 1.3,1.137 2.98,2.688 5.06,4.648 0.86,0.719 2.08,1.09 3.67,1.09 1.71,0 3.09,-0.468 4.15,-1.41 1.06,-0.941 1.59,-2.25 1.59,-3.969 0,-1.5 -0.59,-3.261 -1.77,-5.281 -1.19,-2.012 -2.97,-3.949 -5.34,-5.801 -2.39,-1.847 -5.37,-3.379 -8.98,-4.609 -3.6,-1.219 -7.75,-1.828 -12.43,-1.828 -10.7,0 -19.03,3.058 -24.97,9.16 -5.95,6.098 -8.92,14.387 -8.92,24.848 0,4.929 0.73,9.5 2.2,13.711 1.47,4.218 3.61,7.828 6.41,10.839 2.81,3.012 6.27,5.321 10.38,6.93 4.11,1.61 8.67,2.41 13.68,2.41 6.51,0 12.1,-1.371 16.76,-4.121 4.66,-2.75 8.16,-6.301 10.47,-10.648 2.32,-4.36 3.49,-8.801 3.49,-13.313 0,-4.199 -1.21,-6.906 -3.6,-8.156 -2.4,-1.242 -5.79,-1.871 -10.15,-1.871"
         style="fill:#ffffff;fill-opacity:1;fill-rule:nonzero;stroke:none"
         id="path104" /><path
         d="m 1907.87,192.23 c 0,-4.609 -1.11,-8.55 -3.35,-11.832 -2.24,-3.269 -5.55,-5.757 -9.93,-7.449 -4.37,-1.687 -9.7,-2.527 -15.96,-2.527 -5.99,0 -11.12,0.918 -15.39,2.75 -4.28,1.828 -7.43,4.117 -9.47,6.859 -2.03,2.758 -3.05,5.508 -3.05,8.278 0,1.843 0.65,3.402 1.96,4.703 1.3,1.297 2.95,1.949 4.94,1.949 1.75,0 3.09,-0.422 4.03,-1.281 0.94,-0.848 1.83,-2.059 2.68,-3.598 1.71,-2.98 3.76,-5.184 6.15,-6.66 2.38,-1.461 5.62,-2.192 9.74,-2.192 3.33,0 6.07,0.739 8.21,2.219 2.13,1.5 3.2,3.192 3.2,5.11 0,2.929 -1.1,5.062 -3.33,6.402 -2.22,1.348 -5.87,2.629 -10.96,3.859 -5.74,1.418 -10.41,2.922 -14.01,4.489 -3.61,1.55 -6.48,3.632 -8.64,6.191 -2.16,2.57 -3.24,5.719 -3.24,9.469 0,3.332 1,6.492 2.99,9.461 2,2.972 4.94,5.34 8.83,7.109 3.88,1.781 8.57,2.66 14.07,2.66 4.32,0 8.2,-0.437 11.63,-1.347 3.45,-0.883 6.32,-2.09 8.62,-3.602 2.3,-1.5 4.05,-3.168 5.25,-5 1.19,-1.828 1.79,-3.621 1.79,-5.379 0,-1.91 -0.64,-3.48 -1.91,-4.699 -1.28,-1.211 -3.11,-1.832 -5.47,-1.832 -1.71,0 -3.17,0.492 -4.37,1.469 -1.2,0.972 -2.57,2.441 -4.12,4.39 -1.26,1.633 -2.74,2.93 -4.45,3.91 -1.71,0.981 -4.03,1.461 -6.97,1.461 -3.01,0 -5.51,-0.629 -7.51,-1.922 -1.99,-1.277 -2.99,-2.867 -2.99,-4.789 0,-1.757 0.73,-3.187 2.2,-4.3 1.46,-1.129 3.44,-2.059 5.92,-2.789 2.49,-0.719 5.9,-1.622 10.26,-2.68 5.17,-1.27 9.39,-2.77 12.67,-4.52 3.28,-1.738 5.76,-3.82 7.46,-6.199 1.68,-2.379 2.52,-5.09 2.52,-8.141"
         style="fill:#ffffff;fill-opacity:1;fill-rule:nonzero;stroke:none"
         id="path106" /><path
         d="m 1933.15,228.738 v -48.179 c 0,-3.34 -0.79,-5.868 -2.38,-7.579 -1.59,-1.71 -3.6,-2.558 -6.05,-2.558 -2.44,0 -4.43,0.867 -5.95,2.617 -1.53,1.762 -2.29,4.262 -2.29,7.52 v 47.691 c 0,3.289 0.76,5.781 2.29,7.449 1.52,1.672 3.51,2.5 5.95,2.5 2.45,0 4.46,-0.828 6.05,-2.5 1.59,-1.668 2.38,-3.988 2.38,-6.961 z m -8.24,17.211 c -2.32,0 -4.31,0.723 -5.96,2.141 -1.64,1.422 -2.47,3.441 -2.47,6.051 0,2.371 0.84,4.3 2.53,5.828 1.69,1.531 3.66,2.293 5.9,2.293 2.15,0 4.07,-0.692 5.73,-2.071 1.67,-1.39 2.51,-3.402 2.51,-6.05 0,-2.571 -0.82,-4.571 -2.45,-6.02 -1.62,-1.441 -3.56,-2.172 -5.79,-2.172"
         style="fill:#ffffff;fill-opacity:1;fill-rule:nonzero;stroke:none"
         id="path108" /><path
         d="m 1957.88,204.859 c 0,-6.757 1.47,-11.867 4.42,-15.328 2.95,-3.461 6.77,-5.191 11.45,-5.191 2.77,0 5.38,0.75 7.84,2.23 2.47,1.489 4.48,3.731 6.03,6.719 1.54,2.992 2.32,6.621 2.32,10.902 0,6.789 -1.5,12.09 -4.49,15.868 -3,3.781 -6.93,5.683 -11.82,5.683 -4.77,0 -8.58,-1.812 -11.45,-5.441 -2.87,-3.61 -4.3,-8.77 -4.3,-15.442 z m 48.3,21.133 v -48.433 c 0,-5.528 -0.59,-10.297 -1.78,-14.289 -1.17,-3.981 -3.07,-7.278 -5.67,-9.891 -2.61,-2.598 -6.02,-4.539 -10.23,-5.797 -4.21,-1.262 -9.45,-1.891 -15.73,-1.891 -5.74,0 -10.86,0.797 -15.39,2.411 -4.51,1.609 -7.99,3.679 -10.44,6.23 -2.44,2.539 -3.66,5.16 -3.66,7.848 0,2.031 0.69,3.691 2.08,4.968 1.38,1.293 3.05,1.934 5,1.934 2.44,0 4.58,-1.082 6.42,-3.242 0.89,-1.098 1.81,-2.211 2.77,-3.328 0.96,-1.133 2.02,-2.082 3.18,-2.883 1.16,-0.777 2.55,-1.367 4.18,-1.758 1.63,-0.383 3.51,-0.582 5.62,-0.582 4.32,0 7.66,0.602 10.05,1.801 2.38,1.199 4.05,2.879 5,5.039 0.96,2.152 1.52,4.461 1.68,6.93 0.17,2.472 0.29,6.421 0.37,11.89 -2.57,-3.597 -5.52,-6.328 -8.89,-8.199 -3.35,-1.871 -7.36,-2.801 -11.99,-2.801 -5.58,0 -10.45,1.422 -14.63,4.27 -4.17,2.851 -7.38,6.84 -9.62,11.972 -2.24,5.129 -3.35,11.051 -3.35,17.77 0,5 0.68,9.531 2.04,13.551 1.37,4.039 3.31,7.437 5.83,10.199 2.53,2.769 5.44,4.859 8.73,6.258 3.3,1.41 6.92,2.113 10.87,2.113 4.72,0 8.82,-0.91 12.28,-2.711 3.45,-1.832 6.68,-4.66 9.65,-8.531 v 2.269 c 0,2.883 0.7,5.121 2.13,6.711 1.43,1.59 3.26,2.379 5.5,2.379 3.21,0 5.35,-1.051 6.41,-3.14 1.06,-2.098 1.59,-5.129 1.59,-9.067"
         style="fill:#ffffff;fill-opacity:1;fill-rule:nonzero;stroke:none"
         id="path110" /><path
         d="m 2032.67,228.98 v -2.019 c 2.93,3.871 6.14,6.711 9.62,8.519 3.48,1.809 7.48,2.719 12,2.719 4.4,0 8.32,-0.957 11.79,-2.867 3.45,-1.922 6.05,-4.621 7.75,-8.113 1.1,-2.039 1.81,-4.25 2.14,-6.598 0.32,-2.371 0.49,-5.383 0.49,-9.039 v -31.023 c 0,-3.34 -0.76,-5.868 -2.29,-7.579 -1.53,-1.71 -3.51,-2.558 -5.95,-2.558 -2.49,0 -4.5,0.867 -6.05,2.617 -1.55,1.762 -2.32,4.262 -2.32,7.52 v 27.781 c 0,5.5 -0.77,9.699 -2.29,12.609 -1.53,2.91 -4.57,4.371 -9.14,4.371 -2.96,0 -5.67,-0.89 -8.11,-2.66 -2.45,-1.769 -4.24,-4.211 -5.38,-7.301 -0.81,-2.48 -1.22,-7.117 -1.22,-13.918 v -20.882 c 0,-3.379 -0.79,-5.918 -2.35,-7.61 -1.56,-1.687 -3.59,-2.527 -6.07,-2.527 -2.41,0 -4.38,0.867 -5.93,2.617 -1.54,1.762 -2.32,4.262 -2.32,7.52 v 48.179 c 0,3.172 0.69,5.551 2.08,7.121 1.38,1.563 3.27,2.34 5.67,2.34 1.47,0 2.8,-0.34 3.98,-1.039 1.17,-0.699 2.12,-1.73 2.84,-3.109 0.71,-1.379 1.06,-3.082 1.06,-5.071"
         style="fill:#ffffff;fill-opacity:1;fill-rule:nonzero;stroke:none"
         id="path112" /><path
         d="m 2101.49,209.68 h 30.22 c -0.4,5.699 -1.94,9.968 -4.6,12.8 -2.67,2.829 -6.18,4.239 -10.54,4.239 -4.15,0 -7.57,-1.43 -10.23,-4.297 -2.67,-2.871 -4.28,-7.121 -4.85,-12.742 z m 32.6,-9.469 h -32.6 c 0.04,-3.781 0.8,-7.121 2.29,-10.012 1.48,-2.89 3.46,-5.07 5.92,-6.527 2.46,-1.473 5.18,-2.192 8.15,-2.192 2,0 3.82,0.219 5.47,0.692 1.64,0.469 3.24,1.199 4.8,2.199 1.54,0.988 2.96,2.07 4.27,3.211 1.3,1.137 2.99,2.688 5.07,4.648 0.85,0.719 2.07,1.09 3.66,1.09 1.71,0 3.09,-0.468 4.15,-1.41 1.06,-0.941 1.59,-2.25 1.59,-3.969 0,-1.5 -0.59,-3.261 -1.77,-5.281 -1.19,-2.012 -2.97,-3.949 -5.35,-5.801 -2.38,-1.847 -5.37,-3.379 -8.97,-4.609 -3.61,-1.219 -7.75,-1.828 -12.43,-1.828 -10.7,0 -19.03,3.058 -24.98,9.16 -5.94,6.098 -8.91,14.387 -8.91,24.848 0,4.929 0.73,9.5 2.2,13.711 1.46,4.218 3.6,7.828 6.41,10.839 2.81,3.012 6.27,5.321 10.38,6.93 4.11,1.61 8.68,2.41 13.68,2.41 6.51,0 12.09,-1.371 16.76,-4.121 4.66,-2.75 8.15,-6.301 10.48,-10.648 2.31,-4.36 3.48,-8.801 3.48,-13.313 0,-4.199 -1.2,-6.906 -3.61,-8.156 -2.4,-1.242 -5.78,-1.871 -10.14,-1.871"
         style="fill:#ffffff;fill-opacity:1;fill-rule:nonzero;stroke:none"
         id="path114" /><path
         d="m 2169.26,204.43 c 0,-4.52 0.7,-8.36 2.11,-11.539 1.4,-3.18 3.32,-5.571 5.77,-7.172 2.44,-1.61 5.11,-2.418 8,-2.418 2.93,0 5.61,0.758 8.03,2.289 2.42,1.519 4.36,3.871 5.8,7.019 1.44,3.161 2.17,7.11 2.17,11.821 0,4.441 -0.73,8.261 -2.17,11.461 -1.44,3.191 -3.4,5.629 -5.86,7.328 -2.47,1.679 -5.16,2.523 -8.1,2.523 -3.05,0 -5.78,-0.871 -8.18,-2.594 -2.4,-1.726 -4.26,-4.207 -5.59,-7.449 -1.32,-3.238 -1.98,-6.988 -1.98,-11.269 z m 32.79,-24.489 v 1.661 c -2.24,-2.571 -4.44,-4.661 -6.62,-6.262 -2.18,-1.61 -4.54,-2.84 -7.09,-3.66 -2.54,-0.848 -5.32,-1.258 -8.33,-1.258 -3.99,0 -7.69,0.84 -11.08,2.527 -3.4,1.692 -6.34,4.11 -8.83,7.242 -2.48,3.129 -4.36,6.809 -5.65,11.047 -1.28,4.242 -1.92,8.813 -1.92,13.742 0,10.418 2.54,18.551 7.63,24.372 5.09,5.808 11.79,8.73 20.09,8.73 4.81,0 8.86,-0.832 12.16,-2.473 3.29,-1.648 6.51,-4.187 9.64,-7.597 v 24.597 c 0,3.422 0.68,6.012 2.05,7.762 1.36,1.75 3.31,2.621 5.83,2.621 2.52,0 4.47,-0.801 5.83,-2.41 1.37,-1.613 2.05,-3.973 2.05,-7.113 v -73.528 c 0,-3.171 -0.73,-5.55 -2.2,-7.14 -1.46,-1.582 -3.35,-2.379 -5.68,-2.379 -2.28,0 -4.16,0.816 -5.65,2.469 -1.49,1.648 -2.23,4 -2.23,7.05"
         style="fill:#ffffff;fill-opacity:1;fill-rule:nonzero;stroke:none"
         id="path116" /><path
         d="m 2270.98,203.941 c 0,-6.64 1.52,-11.73 4.55,-15.293 3.03,-3.558 7.02,-5.347 11.94,-5.347 4.19,0 7.81,1.82 10.84,5.469 3.03,3.64 4.55,8.859 4.55,15.66 0,4.402 -0.63,8.191 -1.89,11.359 -1.27,3.18 -3.05,5.633 -5.37,7.359 -2.33,1.723 -5.04,2.594 -8.13,2.594 -3.17,0 -6.01,-0.871 -8.49,-2.594 -2.48,-1.726 -4.43,-4.226 -5.86,-7.507 -1.42,-3.27 -2.14,-7.18 -2.14,-11.7 z m -0.79,49.528 v -25.457 c 3.13,3.25 6.33,5.75 9.59,7.468 3.25,1.731 7.29,2.602 12.09,2.602 5.54,0 10.39,-1.312 14.57,-3.934 4.16,-2.636 7.4,-6.437 9.7,-11.429 2.3,-4.981 3.46,-10.899 3.46,-17.739 0,-5.05 -0.65,-9.671 -1.93,-13.89 -1.28,-4.211 -3.15,-7.871 -5.59,-10.961 -2.44,-3.09 -5.4,-5.488 -8.88,-7.18 -3.49,-1.687 -7.32,-2.527 -11.51,-2.527 -2.57,0 -4.99,0.297 -7.24,0.918 -2.26,0.609 -4.19,1.398 -5.77,2.41 -1.58,0.992 -2.94,2.02 -4.06,3.082 -1.12,1.047 -2.6,2.648 -4.43,4.77 v -1.661 c 0,-3.132 -0.75,-5.5 -2.26,-7.121 -1.5,-1.601 -3.42,-2.398 -5.74,-2.398 -2.36,0 -4.24,0.797 -5.65,2.398 -1.4,1.621 -2.1,3.989 -2.1,7.121 v 72.797 c 0,3.383 0.68,5.934 2.04,7.66 1.36,1.731 3.27,2.594 5.71,2.594 2.57,0 4.54,-0.82 5.92,-2.472 1.39,-1.649 2.08,-4 2.08,-7.051"
         style="fill:#ffffff;fill-opacity:1;fill-rule:nonzero;stroke:none"
         id="path118" /><path
         d="m 2341.21,168.34 1.52,3.73 -20.52,51.66 c -1.26,2.961 -1.89,5.129 -1.89,6.469 0,1.43 0.37,2.75 1.1,3.973 0.73,1.219 1.74,2.199 3.02,2.93 1.28,0.738 2.62,1.097 4,1.097 2.4,0 4.21,-0.758 5.44,-2.289 1.22,-1.519 2.3,-3.711 3.23,-6.558 l 14.11,-41.043 13.37,38.171 c 1.06,3.079 2.02,5.512 2.87,7.27 0.86,1.75 1.76,2.93 2.72,3.531 0.95,0.617 2.31,0.918 4.06,0.918 1.27,0 2.47,-0.328 3.64,-1.008 1.16,-0.671 2.05,-1.57 2.68,-2.722 0.63,-1.129 0.95,-2.328 0.95,-3.59 -0.17,-0.777 -0.43,-1.867 -0.8,-3.309 -0.37,-1.422 -0.81,-2.871 -1.34,-4.328 l -21.74,-56.91 c -1.87,-5.012 -3.7,-8.934 -5.5,-11.781 -1.79,-2.852 -4.16,-5.051 -7.11,-6.571 -2.95,-1.531 -6.93,-2.289 -11.94,-2.289 -4.88,0 -8.55,0.528 -10.98,1.579 -2.45,1.07 -3.67,3 -3.67,5.812 0,1.906 0.58,3.387 1.74,4.418 1.16,1.039 2.88,1.57 5.15,1.57 0.9,0 1.78,-0.129 2.64,-0.379 1.05,-0.242 1.97,-0.359 2.74,-0.359 1.91,0 3.42,0.277 4.52,0.859 1.1,0.559 2.08,1.551 2.96,2.957 0.88,1.391 1.89,3.473 3.03,6.192"
         style="fill:#ffffff;fill-opacity:1;fill-rule:nonzero;stroke:none"
         id="path120" /><path
         d="m 2582.71,236.762 h 3.97 v 5 c 0,5.238 0.64,9.367 1.98,12.457 1.31,3.082 3.57,5.312 6.73,6.722 3.15,1.391 7.47,2.098 12.96,2.098 9.77,0 14.61,-2.367 14.61,-7.168 0,-1.531 -0.51,-2.851 -1.54,-3.949 -0.99,-1.09 -2.21,-1.652 -3.59,-1.652 -0.64,0 -1.79,0.121 -3.39,0.378 -1.52,0.223 -2.91,0.364 -4,0.364 -3.01,0 -4.93,-0.903 -5.82,-2.672 -0.82,-1.77 -1.26,-4.301 -1.26,-7.61 v -3.968 h 4.07 c 6.37,0 9.52,-1.91 9.52,-5.762 0,-2.691 -0.81,-4.441 -2.52,-5.168 -1.68,-0.742 -4.01,-1.102 -7,-1.102 h -4.07 v -44.179 c 0,-3.281 -0.77,-5.789 -2.37,-7.512 -1.55,-1.75 -3.56,-2.609 -6.06,-2.609 -2.36,0 -4.32,0.859 -5.9,2.609 -1.57,1.723 -2.35,4.231 -2.35,7.512 v 44.179 h -4.59 c -2.49,0 -4.38,0.54 -5.74,1.68 -1.34,1.102 -2.02,2.57 -2.02,4.36 0,4.011 2.79,5.992 8.38,5.992"
         style="fill:#ffffff;fill-opacity:1;fill-rule:nonzero;stroke:none"
         id="path122" /><path
         d="m 2637.29,194.492 v -13.941 c 0,-3.36 -0.85,-5.91 -2.4,-7.582 -1.59,-1.707 -3.6,-2.539 -6.03,-2.539 -2.46,0 -4.42,0.84 -5.96,2.582 -1.52,1.687 -2.32,4.218 -2.32,7.539 v 46.441 c 0,7.5 2.7,11.238 8.11,11.238 2.79,0 4.78,-0.859 6,-2.621 1.22,-1.757 1.9,-4.328 2.04,-7.769 1.98,3.441 4.01,6.012 6.1,7.769 2.13,1.762 4.9,2.621 8.42,2.621 3.53,0 6.89,-0.859 10.19,-2.621 3.31,-1.757 4.96,-4.089 4.96,-6.968 0,-2.032 -0.71,-3.731 -2.1,-5.032 -1.41,-1.339 -2.92,-2 -4.54,-2 -0.64,0 -2.13,0.403 -4.45,1.153 -2.35,0.73 -4.43,1.117 -6.19,1.117 -2.44,0 -4.45,-0.66 -5.99,-1.918 -1.56,-1.32 -2.77,-3.199 -3.63,-5.699 -0.83,-2.543 -1.41,-5.563 -1.75,-9.032 -0.32,-3.48 -0.46,-7.73 -0.46,-12.738"
         style="fill:#ffffff;fill-opacity:1;fill-rule:nonzero;stroke:none"
         id="path124" /><path
         d="m 2681.31,209.711 h 30.22 c -0.4,5.687 -1.91,9.969 -4.59,12.769 -2.68,2.852 -6.16,4.25 -10.54,4.25 -4.15,0 -7.57,-1.421 -10.24,-4.3 -2.66,-2.871 -4.29,-7.11 -4.85,-12.719 m 32.62,-9.481 h -32.62 c 0.06,-3.781 0.8,-7.14 2.28,-10.019 1.51,-2.871 3.47,-5.051 5.94,-6.539 2.48,-1.461 5.17,-2.184 8.16,-2.184 2,0 3.81,0.211 5.46,0.711 1.63,0.453 3.25,1.199 4.79,2.199 1.56,0.981 2.96,2.043 4.27,3.211 1.3,1.121 3,2.672 5.08,4.621 0.87,0.731 2.09,1.122 3.66,1.122 1.72,0 3.09,-0.481 4.17,-1.43 1.07,-0.942 1.56,-2.25 1.56,-3.961 0,-1.52 -0.57,-3.27 -1.72,-5.27 -1.2,-2.043 -2.97,-3.961 -5.37,-5.832 -2.4,-1.828 -5.39,-3.39 -8.99,-4.589 -3.59,-1.219 -7.75,-1.84 -12.41,-1.84 -10.75,0 -19.06,3.039 -24.99,9.14 -5.94,6.129 -8.95,14.418 -8.95,24.871 0,4.93 0.75,9.508 2.24,13.731 1.44,4.226 3.58,7.82 6.42,10.848 2.8,3.019 6.23,5.32 10.36,6.929 4.1,1.602 8.66,2.403 13.69,2.403 6.49,0 12.09,-1.372 16.75,-4.153 4.66,-2.711 8.19,-6.269 10.48,-10.629 2.32,-4.379 3.48,-8.8 3.48,-13.34 0,-4.171 -1.21,-6.878 -3.61,-8.14 -2.4,-1.238 -5.77,-1.86 -10.13,-1.86"
         style="fill:#ffffff;fill-opacity:1;fill-rule:nonzero;stroke:none"
         id="path126" /><path
         d="m 2750.67,209.711 h 30.22 c -0.4,5.687 -1.95,9.969 -4.59,12.769 -2.71,2.852 -6.19,4.25 -10.56,4.25 -4.15,0 -7.56,-1.421 -10.24,-4.3 -2.66,-2.871 -4.29,-7.11 -4.83,-12.719 m 32.62,-9.481 h -32.62 c 0.04,-3.781 0.8,-7.14 2.28,-10.019 1.49,-2.871 3.46,-5.051 5.92,-6.539 2.46,-1.461 5.18,-2.184 8.17,-2.184 1.98,0 3.81,0.211 5.43,0.711 1.67,0.453 3.26,1.199 4.83,2.199 1.55,0.981 2.95,2.043 4.27,3.211 1.28,1.121 2.98,2.672 5.06,4.621 0.87,0.731 2.1,1.122 3.66,1.122 1.72,0 3.11,-0.481 4.18,-1.43 1.06,-0.942 1.54,-2.25 1.54,-3.961 0,-1.52 -0.56,-3.27 -1.75,-5.27 -1.14,-2.043 -2.93,-3.961 -5.34,-5.832 -2.38,-1.828 -5.4,-3.39 -8.97,-4.589 -3.59,-1.219 -7.77,-1.84 -12.44,-1.84 -10.72,0 -19.03,3.039 -24.99,9.14 -5.94,6.129 -8.93,14.418 -8.93,24.871 0,4.93 0.75,9.508 2.24,13.731 1.45,4.226 3.59,7.82 6.4,10.848 2.8,3.019 6.25,5.32 10.38,6.929 4.1,1.602 8.68,2.403 13.69,2.403 6.48,0 12.07,-1.372 16.8,-4.153 4.63,-2.711 8.13,-6.269 10.42,-10.629 2.31,-4.379 3.5,-8.8 3.5,-13.34 0,-4.171 -1.23,-6.878 -3.61,-8.14 -2.41,-1.238 -5.78,-1.86 -10.12,-1.86"
         style="fill:#ffffff;fill-opacity:1;fill-rule:nonzero;stroke:none"
         id="path128" /><path
         d="m 2852.49,204.629 c 0,4.402 -0.69,8.191 -2.02,11.332 -1.35,3.168 -3.21,5.578 -5.57,7.258 -2.36,1.691 -5.03,2.551 -7.92,2.551 -4.59,0 -8.48,-1.829 -11.63,-5.43 -3.17,-3.641 -4.76,-8.969 -4.76,-16.031 0,-6.598 1.57,-11.778 4.73,-15.469 3.13,-3.68 6.98,-5.52 11.66,-5.52 2.75,0 5.33,0.809 7.69,2.391 2.39,1.629 4.28,4.031 5.68,7.25 1.42,3.23 2.14,7.121 2.14,11.668 m -32.69,24.223 v -1.993 c 3.13,3.86 6.39,6.7 9.8,8.512 3.34,1.828 7.19,2.75 11.46,2.75 5.11,0 9.87,-1.34 14.19,-3.973 4.32,-2.66 7.71,-6.527 10.22,-11.617 2.5,-5.109 3.76,-11.121 3.76,-18.09 0,-5.109 -0.72,-9.839 -2.16,-14.152 -1.43,-4.289 -3.45,-7.879 -5.97,-10.797 -2.53,-2.89 -5.5,-5.152 -8.93,-6.722 -3.49,-1.551 -7.15,-2.34 -11.11,-2.34 -4.74,0 -8.77,0.961 -11.99,2.879 -3.23,1.882 -6.32,4.711 -9.27,8.39 V 156.68 c 0,-7.309 -2.67,-11 -8,-11 -3.15,0 -5.19,0.941 -6.24,2.832 -0.98,1.918 -1.5,4.648 -1.5,8.297 v 71.961 c 0,3.191 0.68,5.531 2.06,7.121 1.38,1.539 3.29,2.339 5.68,2.339 2.38,0 4.29,-0.8 5.76,-2.398 1.51,-1.633 2.24,-3.922 2.24,-6.98"
         style="fill:#ffffff;fill-opacity:1;fill-rule:nonzero;stroke:none"
         id="path130" /><path
         d="m 2894.28,228.77 v -48.231 c 0,-3.309 -0.8,-5.84 -2.38,-7.527 -1.61,-1.742 -3.6,-2.582 -6.05,-2.582 -2.45,0 -4.4,0.859 -5.97,2.609 -1.5,1.781 -2.28,4.281 -2.28,7.5 v 47.762 c 0,3.269 0.78,5.75 2.28,7.418 1.57,1.703 3.52,2.511 5.97,2.511 2.45,0 4.44,-0.808 6.05,-2.511 1.58,-1.668 2.38,-4 2.38,-6.949 m -8.26,17.23 c -2.33,0 -4.3,0.73 -5.93,2.148 -1.67,1.434 -2.49,3.422 -2.49,6.024 0,2.367 0.84,4.308 2.55,5.848 1.68,1.511 3.64,2.289 5.87,2.289 2.19,0 4.09,-0.688 5.75,-2.059 1.67,-1.398 2.51,-3.43 2.51,-6.078 0,-2.57 -0.82,-4.57 -2.43,-6.012 -1.63,-1.43 -3.57,-2.16 -5.83,-2.16"
         style="fill:#ffffff;fill-opacity:1;fill-rule:nonzero;stroke:none"
         id="path132" /><path
         d="m 2948.03,178.039 -14.69,24.211 -9.05,-8.539 V 180.43 c 0,-3.2 -0.86,-5.668 -2.55,-7.391 -1.65,-1.75 -3.65,-2.609 -5.83,-2.609 -2.56,0 -4.6,0.84 -6.05,2.582 -1.45,1.687 -2.21,4.218 -2.21,7.539 v 71.129 c 0,3.691 0.74,6.5 2.13,8.449 1.43,1.961 3.51,2.91 6.13,2.91 2.57,0 4.58,-0.879 6.1,-2.648 1.51,-1.743 2.28,-4.332 2.28,-7.731 v -40.461 l 18.74,19.692 c 2.33,2.418 4.07,4.121 5.32,5.007 1.22,0.891 2.7,1.332 4.43,1.332 2.1,0 3.82,-0.66 5.25,-1.98 1.35,-1.32 2.06,-2.988 2.06,-4.969 0,-2.441 -2.28,-5.722 -6.78,-9.781 l -8.86,-8.121 17.1,-26.891 c 1.24,-2.019 2.18,-3.496 2.72,-4.539 0.54,-1.027 0.84,-2.058 0.84,-2.969 0,-2.66 -0.74,-4.718 -2.19,-6.269 -1.45,-1.52 -3.37,-2.281 -5.7,-2.281 -2.03,0 -3.62,0.519 -4.71,1.652 -1.09,1.109 -2.62,3.109 -4.48,5.957"
         style="fill:#ffffff;fill-opacity:1;fill-rule:nonzero;stroke:none"
         id="path134" /><path
         d="m 2984.26,170.43 c -2.52,0 -4.68,0.808 -6.52,2.449 -1.83,1.601 -2.75,3.891 -2.75,6.84 0,2.48 0.88,4.633 2.63,6.402 1.77,1.801 3.91,2.699 6.48,2.699 2.56,0 4.73,-0.898 6.58,-2.648 1.79,-1.774 2.71,-3.942 2.71,-6.453 0,-2.899 -0.92,-5.188 -2.71,-6.809 -1.85,-1.672 -3.98,-2.48 -6.42,-2.48"
         style="fill:#ffffff;fill-opacity:1;fill-rule:nonzero;stroke:none"
         id="path136" /><path
         d="m 3067.19,191.07 c 0,-2.058 -0.62,-4.289 -1.87,-6.648 -1.23,-2.383 -3.14,-4.613 -5.7,-6.75 -2.54,-2.133 -5.73,-3.871 -9.61,-5.172 -3.86,-1.301 -8.23,-1.969 -13.05,-1.969 -10.33,0 -18.38,3.02 -24.16,9.008 -5.76,6.02 -8.66,14.082 -8.66,24.18 0,6.863 1.32,12.89 3.98,18.152 2.62,5.238 6.46,9.309 11.46,12.18 5.01,2.879 11.03,4.301 17.96,4.301 4.33,0 8.28,-0.622 11.91,-1.891 3.6,-1.262 6.64,-2.902 9.16,-4.879 2.49,-2.023 4.41,-4.141 5.72,-6.383 1.33,-2.258 1.98,-4.379 1.98,-6.347 0,-1.973 -0.73,-3.672 -2.21,-5.063 -1.51,-1.379 -3.31,-2.078 -5.39,-2.078 -1.41,0 -2.55,0.359 -3.48,1.07 -0.92,0.719 -1.96,1.86 -3.07,3.481 -2.04,3.078 -4.16,5.41 -6.41,6.937 -2.2,1.563 -5.01,2.332 -8.44,2.332 -4.9,0 -8.9,-1.922 -11.92,-5.769 -3.01,-3.832 -4.52,-9.133 -4.52,-15.782 0,-3.14 0.4,-6.039 1.17,-8.671 0.76,-2.61 1.87,-4.86 3.35,-6.707 1.48,-1.84 3.24,-3.243 5.31,-4.204 2.09,-0.988 4.38,-1.449 6.84,-1.449 3.35,0 6.22,0.77 8.59,2.313 2.42,1.547 4.52,3.91 6.35,7.09 1.01,1.867 2.1,3.328 3.27,4.398 1.17,1.039 2.63,1.602 4.34,1.602 2.04,0 3.73,-0.793 5.06,-2.332 1.35,-1.551 2.04,-3.211 2.04,-4.95"
         style="fill:#ffffff;fill-opacity:1;fill-rule:nonzero;stroke:none"
         id="path138" /><path
         d="m 3122.39,204.32 c 0,6.801 -1.5,12.09 -4.48,15.871 -2.98,3.829 -7.01,5.707 -12.05,5.707 -3.27,0 -6.14,-0.847 -8.64,-2.527 -2.48,-1.691 -4.37,-4.18 -5.72,-7.492 -1.34,-3.297 -2.02,-7.149 -2.02,-11.559 0,-4.371 0.66,-8.148 1.99,-11.398 1.33,-3.293 3.22,-5.774 5.69,-7.5 2.48,-1.711 5.37,-2.602 8.7,-2.602 5.04,0 9.07,1.899 12.05,5.731 2.98,3.801 4.48,9.07 4.48,15.769 m 16.74,0 c 0,-4.949 -0.78,-9.55 -2.28,-13.75 -1.59,-4.199 -3.81,-7.8 -6.75,-10.8 -2.93,-3.008 -6.44,-5.321 -10.49,-6.938 -4.12,-1.594 -8.68,-2.41 -13.75,-2.41 -5.05,0 -9.6,0.816 -13.64,2.457 -4.01,1.601 -7.53,3.953 -10.45,6.961 -2.97,3.058 -5.2,6.648 -6.77,10.781 -1.47,4.141 -2.25,8.711 -2.25,13.699 0,5.051 0.8,9.68 2.3,13.871 1.56,4.207 3.79,7.801 6.68,10.758 2.91,2.973 6.39,5.25 10.49,6.883 4.14,1.598 8.68,2.398 13.64,2.398 5.04,0 9.63,-0.8 13.75,-2.449 4.1,-1.609 7.6,-3.949 10.56,-6.941 2.95,-3.051 5.16,-6.621 6.69,-10.75 1.5,-4.18 2.27,-8.738 2.27,-13.77"
         style="fill:#ffffff;fill-opacity:1;fill-rule:nonzero;stroke:none"
         id="path140" /><path
         d="m 3202.73,203.09 v -22.149 c 0,-3.519 -0.77,-6.121 -2.37,-7.902 -1.61,-1.75 -3.68,-2.617 -6.29,-2.617 -2.52,0 -4.59,0.867 -6.11,2.617 -1.59,1.781 -2.4,4.383 -2.4,7.902 v 26.547 c 0,4.211 -0.13,7.481 -0.4,9.813 -0.3,2.269 -1.08,4.211 -2.33,5.668 -1.27,1.511 -3.27,2.261 -5.99,2.261 -5.47,0 -9.04,-1.859 -10.78,-5.66 -1.72,-3.711 -2.61,-9.09 -2.61,-16.121 v -22.508 c 0,-3.461 -0.78,-6.089 -2.32,-7.871 -1.6,-1.761 -3.65,-2.648 -6.21,-2.648 -2.54,0 -4.6,0.887 -6.21,2.648 -1.62,1.782 -2.42,4.41 -2.42,7.871 v 47.7 c 0,3.14 0.72,5.531 2.15,7.14 1.48,1.649 3.39,2.449 5.73,2.449 2.29,0 4.18,-0.789 5.73,-2.281 1.52,-1.527 2.28,-3.64 2.28,-6.328 v -1.582 c 2.91,3.449 6,5.992 9.28,7.602 3.32,1.668 6.96,2.48 11.02,2.48 4.18,0 7.78,-0.851 10.78,-2.512 3.02,-1.679 5.49,-4.207 7.46,-7.57 2.83,3.402 5.85,5.941 9.07,7.602 3.21,1.648 6.77,2.48 10.68,2.48 4.54,0 8.5,-0.922 11.79,-2.699 3.28,-1.793 5.74,-4.371 7.38,-7.684 1.42,-3.039 2.12,-7.777 2.12,-14.258 v -32.539 c 0,-3.519 -0.78,-6.121 -2.36,-7.902 -1.58,-1.75 -3.69,-2.617 -6.29,-2.617 -2.54,0 -4.59,0.887 -6.21,2.648 -1.6,1.782 -2.41,4.41 -2.41,7.871 v 28.039 c 0,3.59 -0.16,6.442 -0.45,8.602 -0.3,2.16 -1.14,3.988 -2.46,5.438 -1.36,1.46 -3.41,2.21 -6.13,2.21 -2.2,0 -4.28,-0.679 -6.26,-1.98 -1.97,-1.27 -3.52,-3.059 -4.63,-5.219 -1.2,-2.82 -1.83,-7.801 -1.83,-14.941"
         style="fill:#ffffff;fill-opacity:1;fill-rule:nonzero;stroke:none"
         id="path142" /><path
         d="m 2426.68,208.359 c -0.01,0.032 -0.01,0.063 -0.01,0.11 0,-0.047 0,-0.078 0.01,-0.11"
         style="fill:#ffffff;fill-opacity:1;fill-rule:nonzero;stroke:none"
         id="path144" /><path
         d="m 2427.52,203.02 c 0.02,0 0.02,0 0.02,0 -0.32,1.519 -0.57,3.031 -0.76,4.519 0.19,-1.5 0.44,-3.008 0.74,-4.519"
         style="fill:#ffffff;fill-opacity:1;fill-rule:nonzero;stroke:none"
         id="path146" /><path
         d="m 2433.04,187.551 c -0.03,0.07 -0.07,0.14 -0.11,0.219 0.04,-0.079 0.08,-0.149 0.11,-0.219"
         style="fill:#ffffff;fill-opacity:1;fill-rule:nonzero;stroke:none"
         id="path148" /><path
         d="m 2432.52,188.582 c -0.15,0.289 -0.29,0.578 -0.43,0.859 0.14,-0.3 0.28,-0.57 0.43,-0.859"
         style="fill:#ffffff;fill-opacity:1;fill-rule:nonzero;stroke:none"
         id="path150" /><path
         d="m 2429.07,197.07 c 0.82,-2.578 1.8,-5.07 2.94,-7.449 -1.16,2.43 -2.12,4.93 -2.91,7.449 -0.01,0 -0.02,0 -0.03,0"
         style="fill:#ffffff;fill-opacity:1;fill-rule:nonzero;stroke:none"
         id="path152" /><path
         d="m 2491.22,272.242 c 3.22,0 5.6,-0.262 8.32,-0.722 l 0.78,4.91 c 0,0 -7.53,2.308 -17.43,1.5 l -0.78,2.672 c 3.08,0.648 5.39,3.386 5.39,6.648 0,3.742 -3.05,6.781 -6.8,6.781 -3.75,0 -6.79,-3.039 -6.79,-6.781 0,-3.262 2.31,-6 5.38,-6.648 l 0.86,-2.973 c -10.51,-1.449 -18.87,-5.547 -18.87,-5.547 l 1.48,-4.531 c 6.36,2.121 11.87,3.398 16.87,3.937 4.9,0.524 8.58,0.754 11.59,0.754"
         style="fill:#ffffff;fill-opacity:1;fill-rule:nonzero;stroke:none"
         id="path154" /><path
         d="m 2432.92,247.43 0.04,0.05 c 0.24,0.321 0.48,0.622 0.72,0.918 l -2.01,1.454 -3.13,2.289 c -0.18,-0.243 -5.12,-4.782 -9.02,-13.161 -0.16,0.262 -0.35,0.52 -0.57,0.762 -1.17,1.278 -2.8,1.93 -4.88,1.887 -0.02,0 -0.06,0 -0.09,0 -1.29,0 -2.17,0.43 -2.75,0.953 0.58,0.727 0.92,1.637 0.92,2.656 0,2.364 -1.92,4.301 -4.3,4.301 -2.37,0 -4.3,-1.937 -4.3,-4.301 0,-2.379 1.93,-4.297 4.3,-4.297 0.37,0 0.73,0.059 1.07,0.129 1.06,-1.179 2.74,-2.199 5.2,-2.148 1.26,0.008 2.19,-0.313 2.81,-1 0.71,-0.781 0.95,-1.902 1.03,-2.75 -0.01,-0.012 -0.01,-0.031 -0.02,-0.031 -2.8,-7.653 -2,-17.172 -2,-17.172 l 6.79,-0.27 c 0.14,3.473 0.64,9.531 2.39,14.34 3.39,9.32 7.62,15.152 7.8,15.391"
         style="fill:#ffffff;fill-opacity:1;fill-rule:nonzero;stroke:none"
         id="path156" /><path
         d="m 2550.36,266.559 c -2.37,0 -4.3,-1.918 -4.3,-4.297 0,-0.371 0.06,-0.723 0.15,-1.063 -1.18,-1.07 -2.2,-2.75 -2.16,-5.219 0.01,-1.261 -0.31,-2.179 -1,-2.8 -0.54,-0.489 -1.23,-0.739 -1.9,-0.91 -5.06,7.089 -11.29,11.421 -11.29,11.421 l -4.88,-5.23 c 3.69,-3.352 7.46,-7.563 11.12,-12.801 2.53,-3.621 5.13,-8.289 7.3,-12.949 l 6.59,3.129 c 0,0 -3.01,7.422 -7.24,14.09 0.73,0.25 1.47,0.652 2.12,1.23 1.29,1.16 1.93,2.809 1.89,4.871 -0.01,1.34 0.43,2.25 0.95,2.84 0.74,-0.562 1.65,-0.91 2.65,-0.91 2.39,0 4.31,1.918 4.31,4.301 0,2.379 -1.92,4.297 -4.31,4.297"
         style="fill:#ffffff;fill-opacity:1;fill-rule:nonzero;stroke:none"
         id="path158" /><path
         d="m 2533.28,207.391 c -9.06,-4.411 -23.97,-10.243 -43.6,-12.981 -7.7,-1.07 -15.17,-1.461 -22.04,-1.461 -8.94,0 -16.84,0.66 -22.91,1.43 -6.92,0.871 -12.32,1.941 -15.63,2.691 0.79,-2.519 1.75,-5.019 2.91,-7.449 0.03,-0.062 0.05,-0.129 0.08,-0.18 0.14,-0.281 0.28,-0.57 0.43,-0.859 0.13,-0.281 0.27,-0.551 0.41,-0.812 0.04,-0.079 0.08,-0.149 0.11,-0.219 1.95,-3.66 4.29,-7.031 6.95,-9.949 9.26,-10.133 18.69,-11.731 18.78,-11.75 l 0.15,-0.012 0.13,-0.051 c 0.09,-0.039 8.45,-2.738 21.17,-2.738 12.5,0 24.78,2.531 36.48,7.508 8.66,4.429 16.85,11.16 20.92,17.16 3.14,4.652 5.4,9.601 6.75,14.75 0.71,2.742 1.28,7.121 0.94,11.742 -2.54,-1.723 -6.58,-4.16 -12.03,-6.82"
         style="fill:#ffffff;fill-opacity:1;fill-rule:nonzero;stroke:none"
         id="path160" /><path
         d="m 2461.72,250.02 c 10.01,0 18.11,-8.11 18.11,-18.11 0,-10.012 -8.1,-18.101 -18.11,-18.101 -9.99,0 -18.1,8.089 -18.1,18.101 0,10 8.11,18.11 18.1,18.11 z m 52.99,-0.45 c 6.18,0 11.21,-5.019 11.21,-11.199 0,-6.191 -5.03,-11.223 -11.21,-11.223 -6.18,0 -11.2,5.032 -11.2,11.223 0,6.18 5.02,11.199 11.2,11.199 z m -78.88,-4.281 c -0.27,-0.391 -4.2,-5.949 -7.3,-14.488 -2.33,-6.403 -2.22,-15.711 -2.22,-15.813 v -0.019 c 0,-2.188 0.12,-4.348 0.36,-6.5 0,-0.047 0,-0.078 0.01,-0.11 0.03,-0.277 0.07,-0.539 0.1,-0.82 0.19,-1.488 0.44,-3 0.76,-4.519 4.5,-1.141 31.37,-7.399 61.39,-3.219 18.82,2.621 33.11,8.179 41.79,12.39 7.2,3.489 11.84,6.661 13.63,7.961 -1.79,6.61 -6.7,16.969 -11.21,23.438 -12.89,18.422 -26.79,23.152 -33.93,24.32 -2.72,0.449 -4.9,0.711 -7.99,0.711 -2.88,0 -6.44,-0.242 -11.21,-0.742 -4.78,-0.488 -10.11,-1.75 -16.28,-3.828 -8.67,-2.903 -16.51,-7.449 -22.68,-13.16 l -0.21,-0.2 c -0.91,-0.839 -2.82,-2.609 -5.01,-5.402"
         style="fill:#ffffff;fill-opacity:1;fill-rule:nonzero;stroke:none"
         id="path162" /></g></g></svg>
